<svg width="155" height="17" viewBox="0 0 155 17" fill="none" xmlns="http://www.w3.org/2000/svg">
<path d="M6.3345 13.41C5.4345 13.41 4.6005 13.248 3.8325 12.924C3.0645 12.6 2.3925 12.15 1.8165 11.574C1.2405 10.986 0.7905 10.308 0.4665 9.53996C0.1545 8.77196 -0.00149998 7.94396 -0.00149998 7.05596C-0.00149998 6.16796 0.1605 5.33996 0.4845 4.57196C0.8085 3.80396 1.2585 3.13196 1.8345 2.55596C2.4105 1.96796 3.0825 1.51196 3.8505 1.18796C4.6305 0.863957 5.4705 0.701957 6.3705 0.701957C7.2705 0.701957 8.1045 0.863957 8.8725 1.18796C9.6525 1.49996 10.3245 1.94396 10.8885 2.51996C11.4645 3.09596 11.9085 3.76796 12.2205 4.53596C12.5445 5.29196 12.7065 6.11996 12.7065 7.01996C12.7065 7.91996 12.5445 8.75996 12.2205 9.53996C11.8965 10.308 11.4405 10.986 10.8525 11.574C10.2765 12.15 9.6045 12.6 8.8365 12.924C8.0685 13.248 7.2345 13.41 6.3345 13.41ZM6.3165 12.744C7.1325 12.744 7.8825 12.6 8.5665 12.312C9.2505 12.012 9.8505 11.604 10.3665 11.088C10.8945 10.572 11.3025 9.96596 11.5905 9.26996C11.8785 8.56196 12.0225 7.81196 12.0225 7.01996C12.0225 6.21596 11.8785 5.47196 11.5905 4.78796C11.3145 4.10396 10.9185 3.50396 10.4025 2.98796C9.8985 2.47196 9.2985 2.07596 8.6025 1.79996C7.9185 1.51196 7.1745 1.36796 6.3705 1.36796C5.5545 1.36796 4.7985 1.51196 4.1025 1.79996C3.4065 2.08796 2.8005 2.49596 2.2845 3.02396C1.7805 3.53996 1.3845 4.13996 1.0965 4.82396C0.8085 5.50796 0.6645 6.25196 0.6645 7.05596C0.6645 7.84796 0.8085 8.59196 1.0965 9.28796C1.3845 9.97196 1.7805 10.578 2.2845 11.106C2.8005 11.622 3.4005 12.024 4.0845 12.312C4.7805 12.6 5.5245 12.744 6.3165 12.744ZM6.4965 10.8C5.7765 10.8 5.1345 10.644 4.5705 10.332C4.0065 10.008 3.5625 9.56396 3.2385 8.99996C2.9145 8.43596 2.7525 7.78796 2.7525 7.05596C2.7525 6.32396 2.9145 5.67596 3.2385 5.11196C3.5625 4.54796 4.0065 4.10996 4.5705 3.79796C5.1345 3.47396 5.7765 3.31196 6.4965 3.31196C7.1085 3.31196 7.6605 3.43796 8.1525 3.68996C8.6565 3.92996 9.0585 4.26596 9.3585 4.69796L8.5845 5.27396C8.3325 4.92596 8.0265 4.66796 7.6665 4.49996C7.3065 4.33196 6.9105 4.24796 6.4785 4.24796C5.9625 4.24796 5.5005 4.36796 5.0925 4.60796C4.6965 4.83596 4.3785 5.15996 4.1385 5.57996C3.8985 5.99996 3.7785 6.49196 3.7785 7.05596C3.7785 7.61996 3.8985 8.11196 4.1385 8.53196C4.3785 8.95196 4.6965 9.28196 5.0925 9.52196C5.5005 9.74996 5.9625 9.86396 6.4785 9.86396C6.9105 9.86396 7.3065 9.77996 7.6665 9.61196C8.0265 9.44396 8.3325 9.18596 8.5845 8.83796L9.3585 9.39596C9.0585 9.83996 8.6565 10.188 8.1525 10.44C7.6605 10.68 7.1085 10.8 6.4965 10.8ZM25.8521 13.464C24.9041 13.464 24.0281 13.308 23.2241 12.996C22.4201 12.672 21.7241 12.222 21.1361 11.646C20.5481 11.07 20.0861 10.392 19.7501 9.61196C19.4261 8.83196 19.2641 7.97996 19.2641 7.05596C19.2641 6.13196 19.4261 5.27996 19.7501 4.49996C20.0861 3.71996 20.5481 3.04196 21.1361 2.46596C21.7361 1.88996 22.4381 1.44596 23.2421 1.13396C24.0461 0.809957 24.9221 0.647956 25.8701 0.647956C26.7821 0.647956 27.6401 0.803957 28.4441 1.11596C29.2481 1.41596 29.9261 1.87196 30.4781 2.48396L29.6321 3.32996C29.1161 2.80196 28.5461 2.42396 27.9221 2.19596C27.2981 1.95596 26.6261 1.83596 25.9061 1.83596C25.1501 1.83596 24.4481 1.96796 23.8001 2.23196C23.1521 2.48396 22.5881 2.84996 22.1081 3.32996C21.6281 3.79796 21.2501 4.34996 20.9741 4.98596C20.7101 5.60996 20.5781 6.29996 20.5781 7.05596C20.5781 7.81196 20.7101 8.50796 20.9741 9.14396C21.2501 9.76796 21.6281 10.32 22.1081 10.8C22.5881 11.268 23.1521 11.634 23.8001 11.898C24.4481 12.15 25.1501 12.276 25.9061 12.276C26.6261 12.276 27.2981 12.156 27.9221 11.916C28.5461 11.676 29.1161 11.292 29.6321 10.764L30.4781 11.61C29.9261 12.222 29.2481 12.684 28.4441 12.996C27.6401 13.308 26.7761 13.464 25.8521 13.464ZM36.4778 13.446C35.5658 13.446 34.7438 13.242 34.0118 12.834C33.2918 12.414 32.7218 11.844 32.3018 11.124C31.8818 10.392 31.6718 9.55796 31.6718 8.62196C31.6718 7.67396 31.8818 6.83996 32.3018 6.11996C32.7218 5.39996 33.2918 4.83596 34.0118 4.42796C34.7318 4.01996 35.5538 3.81596 36.4778 3.81596C37.4138 3.81596 38.2418 4.01996 38.9618 4.42796C39.6938 4.83596 40.2638 5.39996 40.6718 6.11996C41.0918 6.83996 41.3018 7.67396 41.3018 8.62196C41.3018 9.55796 41.0918 10.392 40.6718 11.124C40.2638 11.844 39.6938 12.414 38.9618 12.834C38.2298 13.242 37.4018 13.446 36.4778 13.446ZM36.4778 12.312C37.1618 12.312 37.7678 12.162 38.2958 11.862C38.8238 11.55 39.2378 11.118 39.5378 10.566C39.8498 10.002 40.0058 9.35396 40.0058 8.62196C40.0058 7.87796 39.8498 7.22996 39.5378 6.67796C39.2378 6.12596 38.8238 5.69996 38.2958 5.39996C37.7678 5.08796 37.1678 4.93196 36.4958 4.93196C35.8238 4.93196 35.2238 5.08796 34.6958 5.39996C34.1678 5.69996 33.7478 6.12596 33.4358 6.67796C33.1238 7.22996 32.9678 7.87796 32.9678 8.62196C32.9678 9.35396 33.1238 10.002 33.4358 10.566C33.7478 11.118 34.1678 11.55 34.6958 11.862C35.2238 12.162 35.8178 12.312 36.4778 12.312ZM48.7889 13.446C47.9729 13.446 47.2349 13.26 46.5749 12.888C45.9149 12.504 45.3869 11.958 44.9909 11.25C44.6069 10.53 44.4149 9.65396 44.4149 8.62196C44.4149 7.58996 44.6069 6.71996 44.9909 6.01196C45.3749 5.29196 45.8969 4.74596 46.5569 4.37396C47.2169 4.00196 47.9609 3.81596 48.7889 3.81596C49.6889 3.81596 50.4929 4.01996 51.2009 4.42796C51.9209 4.82396 52.4849 5.38796 52.8929 6.11996C53.3009 6.83996 53.5049 7.67396 53.5049 8.62196C53.5049 9.58196 53.3009 10.422 52.8929 11.142C52.4849 11.862 51.9209 12.426 51.2009 12.834C50.4929 13.242 49.6889 13.446 48.7889 13.446ZM43.9109 16.848V3.90596H45.1349V6.74996L45.0089 8.63996L45.1889 10.548V16.848H43.9109ZM48.6989 12.312C49.3709 12.312 49.9709 12.162 50.4989 11.862C51.0269 11.55 51.4469 11.118 51.7589 10.566C52.0709 10.002 52.2269 9.35396 52.2269 8.62196C52.2269 7.88996 52.0709 7.24796 51.7589 6.69596C51.4469 6.14396 51.0269 5.71196 50.4989 5.39996C49.9709 5.08796 49.3709 4.93196 48.6989 4.93196C48.0269 4.93196 47.4209 5.08796 46.8809 5.39996C46.3529 5.71196 45.9329 6.14396 45.6209 6.69596C45.3209 7.24796 45.1709 7.88996 45.1709 8.62196C45.1709 9.35396 45.3209 10.002 45.6209 10.566C45.9329 11.118 46.3529 11.55 46.8809 11.862C47.4209 12.162 48.0269 12.312 48.6989 12.312ZM55.9185 16.938C55.4745 16.938 55.0485 16.866 54.6405 16.722C54.2445 16.578 53.9025 16.362 53.6145 16.074L54.2085 15.12C54.4485 15.348 54.7065 15.522 54.9825 15.642C55.2705 15.774 55.5885 15.84 55.9365 15.84C56.3565 15.84 56.7165 15.72 57.0165 15.48C57.3285 15.252 57.6225 14.844 57.8985 14.256L58.5105 12.87L58.6545 12.672L62.5425 3.90596H63.8025L59.0685 14.49C58.8045 15.102 58.5105 15.588 58.1865 15.948C57.8745 16.308 57.5325 16.56 57.1605 16.704C56.7885 16.86 56.3745 16.938 55.9185 16.938ZM58.4385 13.626L54.0825 3.90596H55.4145L59.2665 12.582L58.4385 13.626ZM65.6023 13.356V3.90596H66.8263V6.47996L66.7003 6.02996C66.9643 5.30996 67.4083 4.76396 68.0323 4.39196C68.6563 4.00796 69.4303 3.81596 70.3543 3.81596V5.05796C70.3063 5.05796 70.2583 5.05796 70.2103 5.05796C70.1623 5.04596 70.1143 5.03996 70.0663 5.03996C69.0703 5.03996 68.2903 5.34596 67.7263 5.95796C67.1623 6.55796 66.8803 7.41596 66.8803 8.53196V13.356H65.6023ZM72.6863 13.356V3.90596H73.9643V13.356H72.6863ZM73.3343 1.81796C73.0703 1.81796 72.8483 1.72796 72.6683 1.54796C72.4883 1.36796 72.3983 1.15196 72.3983 0.899956C72.3983 0.647956 72.4883 0.437956 72.6683 0.269956C72.8483 0.0899562 73.0703 -4.37498e-05 73.3343 -4.37498e-05C73.5983 -4.37498e-05 73.8203 0.0839562 74.0003 0.251956C74.1803 0.419956 74.2703 0.629956 74.2703 0.881957C74.2703 1.14596 74.1803 1.36796 74.0003 1.54796C73.8323 1.72796 73.6103 1.81796 73.3343 1.81796ZM81.5523 16.938C80.6883 16.938 79.8603 16.812 79.0683 16.56C78.2763 16.308 77.6343 15.948 77.1423 15.48L77.7903 14.508C78.2343 14.904 78.7803 15.216 79.4283 15.444C80.0883 15.684 80.7843 15.804 81.5163 15.804C82.7163 15.804 83.5983 15.522 84.1623 14.958C84.7263 14.406 85.0083 13.542 85.0083 12.366V10.008L85.1883 8.38796L85.0623 6.76796V3.90596H86.2863V12.204C86.2863 13.836 85.8843 15.03 85.0803 15.786C84.2883 16.554 83.1123 16.938 81.5523 16.938ZM81.3183 12.996C80.4183 12.996 79.6083 12.804 78.8883 12.42C78.1683 12.024 77.5983 11.478 77.1783 10.782C76.7703 10.086 76.5663 9.28796 76.5663 8.38796C76.5663 7.48796 76.7703 6.69596 77.1783 6.01196C77.5983 5.31596 78.1683 4.77596 78.8883 4.39196C79.6083 4.00796 80.4183 3.81596 81.3183 3.81596C82.1583 3.81596 82.9143 3.98996 83.5863 4.33796C84.2583 4.68596 84.7923 5.20196 85.1883 5.88596C85.5843 6.56996 85.7823 7.40396 85.7823 8.38796C85.7823 9.37196 85.5843 10.206 85.1883 10.89C84.7923 11.574 84.2583 12.096 83.5863 12.456C82.9143 12.816 82.1583 12.996 81.3183 12.996ZM81.4443 11.862C82.1403 11.862 82.7583 11.718 83.2983 11.43C83.8383 11.13 84.2643 10.722 84.5763 10.206C84.8883 9.67796 85.0443 9.07196 85.0443 8.38796C85.0443 7.70396 84.8883 7.10396 84.5763 6.58796C84.2643 6.07196 83.8383 5.66996 83.2983 5.38196C82.7583 5.08196 82.1403 4.93196 81.4443 4.93196C80.7603 4.93196 80.1423 5.08196 79.5903 5.38196C79.0503 5.66996 78.6243 6.07196 78.3123 6.58796C78.0123 7.10396 77.8623 7.70396 77.8623 8.38796C77.8623 9.07196 78.0123 9.67796 78.3123 10.206C78.6243 10.722 79.0503 11.13 79.5903 11.43C80.1423 11.718 80.7603 11.862 81.4443 11.862ZM94.6665 3.81596C95.4345 3.81596 96.1065 3.96596 96.6825 4.26596C97.2705 4.55396 97.7265 4.99796 98.0505 5.59796C98.3865 6.19796 98.5545 6.95396 98.5545 7.86596V13.356H97.2765V7.99196C97.2765 6.99596 97.0245 6.24596 96.5205 5.74196C96.0285 5.22596 95.3325 4.96796 94.4325 4.96796C93.7605 4.96796 93.1725 5.10596 92.6685 5.38196C92.1765 5.64596 91.7925 6.03596 91.5165 6.55196C91.2525 7.05596 91.1205 7.66796 91.1205 8.38796V13.356H89.8425V-4.37498e-05H91.1205V6.49796L90.8685 6.01196C91.1685 5.32796 91.6485 4.79396 92.3085 4.40996C92.9685 4.01396 93.7545 3.81596 94.6665 3.81596ZM104.995 13.446C104.107 13.446 103.423 13.206 102.943 12.726C102.463 12.246 102.223 11.568 102.223 10.692V1.81796H103.501V10.62C103.501 11.172 103.639 11.598 103.915 11.898C104.203 12.198 104.611 12.348 105.139 12.348C105.703 12.348 106.171 12.186 106.543 11.862L106.993 12.78C106.741 13.008 106.435 13.176 106.075 13.284C105.727 13.392 105.367 13.446 104.995 13.446ZM100.531 4.96796V3.90596H106.381V4.96796H100.531ZM112.95 13.356V12.438L118.188 7.30796C118.668 6.83996 119.028 6.43196 119.268 6.08396C119.508 5.72396 119.67 5.38796 119.754 5.07596C119.838 4.76396 119.88 4.46996 119.88 4.19396C119.88 3.46196 119.628 2.88596 119.124 2.46596C118.632 2.04596 117.9 1.83596 116.928 1.83596C116.184 1.83596 115.524 1.94996 114.948 2.17796C114.384 2.40596 113.898 2.75996 113.49 3.23996L112.572 2.44796C113.064 1.87196 113.694 1.42796 114.462 1.11596C115.23 0.803957 116.088 0.647956 117.036 0.647956C117.888 0.647956 118.626 0.785957 119.25 1.06196C119.874 1.32596 120.354 1.71596 120.69 2.23196C121.038 2.74796 121.212 3.35396 121.212 4.04996C121.212 4.45796 121.152 4.85996 121.032 5.25596C120.924 5.65196 120.72 6.07196 120.42 6.51596C120.132 6.94796 119.706 7.43996 119.142 7.99196L114.336 12.708L113.976 12.204H121.788V13.356H112.95ZM128.401 13.464C127.429 13.464 126.565 13.212 125.809 12.708C125.053 12.192 124.459 11.46 124.027 10.512C123.595 9.55196 123.379 8.39996 123.379 7.05596C123.379 5.71196 123.595 4.56596 124.027 3.61796C124.459 2.65796 125.053 1.92596 125.809 1.42196C126.565 0.905956 127.429 0.647956 128.401 0.647956C129.373 0.647956 130.237 0.905956 130.993 1.42196C131.749 1.92596 132.343 2.65796 132.775 3.61796C133.219 4.56596 133.441 5.71196 133.441 7.05596C133.441 8.39996 133.219 9.55196 132.775 10.512C132.343 11.46 131.749 12.192 130.993 12.708C130.237 13.212 129.373 13.464 128.401 13.464ZM128.401 12.276C129.145 12.276 129.793 12.078 130.345 11.682C130.897 11.274 131.329 10.686 131.641 9.91796C131.953 9.13796 132.109 8.18396 132.109 7.05596C132.109 5.92796 131.953 4.97996 131.641 4.21196C131.329 3.43196 130.897 2.84396 130.345 2.44796C129.793 2.03996 129.145 1.83596 128.401 1.83596C127.681 1.83596 127.039 2.03996 126.475 2.44796C125.911 2.84396 125.473 3.43196 125.161 4.21196C124.849 4.97996 124.693 5.92796 124.693 7.05596C124.693 8.18396 124.849 9.13796 125.161 9.91796C125.473 10.686 125.911 11.274 126.475 11.682C127.039 12.078 127.681 12.276 128.401 12.276ZM135.063 13.356V12.438L140.301 7.30796C140.781 6.83996 141.141 6.43196 141.381 6.08396C141.621 5.72396 141.783 5.38796 141.867 5.07596C141.951 4.76396 141.993 4.46996 141.993 4.19396C141.993 3.46196 141.741 2.88596 141.237 2.46596C140.745 2.04596 140.013 1.83596 139.041 1.83596C138.297 1.83596 137.637 1.94996 137.061 2.17796C136.497 2.40596 136.011 2.75996 135.603 3.23996L134.685 2.44796C135.177 1.87196 135.807 1.42796 136.575 1.11596C137.343 0.803957 138.201 0.647956 139.149 0.647956C140.001 0.647956 140.739 0.785957 141.363 1.06196C141.987 1.32596 142.467 1.71596 142.803 2.23196C143.151 2.74796 143.325 3.35396 143.325 4.04996C143.325 4.45796 143.265 4.85996 143.145 5.25596C143.037 5.65196 142.833 6.07196 142.533 6.51596C142.245 6.94796 141.819 7.43996 141.255 7.99196L136.449 12.708L136.089 12.204H143.901V13.356H135.063ZM150.659 13.464C149.543 13.464 148.601 13.218 147.833 12.726C147.065 12.222 146.483 11.502 146.087 10.566C145.691 9.61796 145.493 8.48396 145.493 7.16396C145.493 5.73596 145.733 4.54196 146.213 3.58196C146.705 2.60996 147.383 1.87796 148.247 1.38596C149.111 0.893957 150.113 0.647956 151.253 0.647956C151.817 0.647956 152.357 0.701957 152.873 0.809957C153.389 0.917957 153.845 1.09196 154.241 1.33196L153.719 2.37596C153.395 2.15996 153.023 2.00996 152.603 1.92596C152.183 1.82996 151.739 1.78196 151.271 1.78196C149.915 1.78196 148.829 2.21396 148.013 3.07796C147.209 3.94196 146.807 5.23196 146.807 6.94796C146.807 7.21196 146.819 7.54196 146.843 7.93796C146.879 8.32196 146.951 8.70596 147.059 9.08996L146.609 8.74796C146.741 8.12396 146.999 7.59596 147.383 7.16396C147.767 6.71996 148.247 6.38396 148.823 6.15596C149.399 5.92796 150.029 5.81396 150.713 5.81396C151.553 5.81396 152.291 5.96996 152.927 6.28196C153.563 6.59396 154.061 7.03196 154.421 7.59596C154.781 8.15996 154.961 8.82596 154.961 9.59396C154.961 10.374 154.775 11.058 154.403 11.646C154.031 12.222 153.515 12.672 152.855 12.996C152.207 13.308 151.475 13.464 150.659 13.464ZM150.605 12.366C151.205 12.366 151.733 12.258 152.189 12.042C152.657 11.814 153.023 11.496 153.287 11.088C153.551 10.668 153.683 10.182 153.683 9.62996C153.683 8.80196 153.395 8.14196 152.819 7.64996C152.255 7.15796 151.487 6.91196 150.515 6.91196C149.867 6.91196 149.303 7.03196 148.823 7.27196C148.343 7.51196 147.965 7.84196 147.689 8.26196C147.413 8.66996 147.275 9.13796 147.275 9.66596C147.275 10.122 147.401 10.56 147.653 10.98C147.905 11.388 148.277 11.724 148.769 11.988C149.273 12.24 149.885 12.366 150.605 12.366Z" fill="white"/>
</svg>
