<svg width="144" height="28" viewBox="0 0 144 28" fill="none" xmlns="http://www.w3.org/2000/svg">
<path d="M25.963 0.0112581C27.2914 -0.0146995 28.6304 0.0157939 29.9602 0.00168153C30.2182 -0.00105524 30.7786 0.000201773 31.0709 0.00111496C31.1737 0.00143622 31.2567 0.0841521 31.2567 0.186982C31.2567 0.79587 31.2567 2.73285 31.2567 3.36561V8.79116L31.2572 18.1609C31.2577 19.5977 31.2419 23.0321 31.2419 23.0321C31.2419 23.0321 30.0722 24.2472 29.7215 24.596C28.8294 25.4844 27.9151 26.3973 27.0212 27.2825C26.1712 28.1237 26.2087 28.0001 25.0408 27.9839C25.0699 26.1595 25.0274 24.1949 25.0283 22.3552L25.0209 9.27991C25.0209 9.27991 23.748 10.4976 23.1817 11.0635L20.3596 13.8899L12.0895 22.1548L8.23409 25.9938C7.60592 26.618 6.96841 27.2774 6.30161 27.8567C5.72425 28.3583 4.79552 27.1048 4.38649 26.6972C3.66629 25.9869 2.95012 25.273 2.23803 24.5544C1.76376 24.0806 0.0365855 22.2959 0.0365855 22.2959L0.015625 13.3509C0.015625 13.3509 1.31966 14.6033 1.8892 15.1647C3.31029 16.5771 4.74092 17.9799 6.18094 19.373C7.42995 18.0583 8.97168 16.6038 10.274 15.3067L18.2516 7.36377L23.0063 2.619C23.8359 1.79099 24.6845 0.956048 25.5262 0.138501C25.6354 0.0325424 25.813 0.0258794 25.963 0.0112581Z" fill="white"/>
<path d="M0.767451 0.0135105L4.82336 0C4.94802 0.000741422 5.10072 0.000634246 5.20853 0.000406923C5.29649 0.000221474 5.3807 0.030078 5.44811 0.0865845C5.83995 0.415083 7.23866 1.59362 7.79793 2.14481L12.7781 7.0878L11.2762 8.65631L9.17543 10.7829C9.17543 10.7829 8.31175 9.91398 7.93498 9.53924C7.423 9.0212 6.87955 8.50062 6.35888 7.98845C6.36906 9.24209 6.37193 10.4958 6.36753 11.7494C6.36734 12.0057 6.33879 13.3784 6.33879 13.3784C6.33879 13.3784 4.61218 11.7181 4.32771 11.4274C2.91892 9.98811 0.0386029 7.1256 0.0386029 7.1256C0.0386029 7.1256 0.0399919 4.48071 0.0175972 3.21207C0.0310618 2.3235 -0.0064625 1.42855 0.0386509 0.541361C0.0644697 0.0324822 0.371888 0.0282244 0.767451 0.0135105Z" fill="white"/>
<g clip-path="url(#clip0_2541_6982)">
<path d="M57.6454 7.59115C57.6845 7.53418 57.7498 7.50184 57.819 7.50208C58.5164 7.50453 59.2469 7.51558 59.945 7.50296C60.0674 7.50074 60.1685 7.59879 60.169 7.72123L60.2169 20.2769C60.2173 20.3986 60.1181 20.4972 59.9963 20.4961C59.1979 20.4889 58.3995 20.4883 57.6011 20.4944C57.483 20.4953 57.3855 20.4024 57.3815 20.2844C57.3069 18.1197 57.3584 15.7158 57.3557 13.4978C57.3554 13.2784 57.0696 13.1992 56.9562 13.387C55.828 15.2553 54.7369 17.1599 53.6019 19.0217C53.5629 19.0858 53.4929 19.1251 53.4179 19.1266C52.011 19.1536 52.3024 19.3006 51.5223 18.0196L50.177 15.8046L49.0028 13.8742C48.962 13.8072 48.9142 13.7302 48.863 13.6481C48.7413 13.4528 48.3943 13.5466 48.3945 13.7768L48.4011 20.2771C48.4012 20.3988 48.3018 20.497 48.1801 20.4964C47.4058 20.4922 46.5379 20.5134 45.7797 20.4922C45.6626 20.4889 45.5703 20.3926 45.5703 20.2755V7.7232C45.5703 7.60275 45.6679 7.50508 45.7883 7.50494L47.9361 7.50259C48.0127 7.5025 48.0838 7.54259 48.1233 7.60822L51.3208 12.9158C51.676 13.5057 52.2914 14.596 52.7294 15.2725C52.8162 15.4066 53.0113 15.3975 53.0907 15.2589C54.0185 13.641 55.0238 11.9982 55.9733 10.3926L57.0548 8.56471C57.212 8.29934 57.4551 7.86786 57.6454 7.59115Z" fill="#FEFEFE"/>
<path d="M72.4033 7.29126H73.4913C73.7008 7.33628 73.9 7.34197 74.1091 7.3733C77.9022 7.94178 80.2788 11.4972 79.518 15.4434C79.1893 17.1012 78.2507 18.5531 76.9087 19.4799C75.5217 20.449 74.6758 20.4949 73.1337 20.7087H72.7249C72.5345 20.6594 71.9491 20.6148 71.7027 20.5769C70.7591 20.4294 69.8557 20.0729 69.0516 19.5309C67.7176 18.6294 66.7697 17.2451 66.4195 15.6136C66.0326 13.8018 66.2678 11.9012 67.2349 10.3319C68.2613 8.66641 69.9242 7.6584 71.7713 7.37758C71.9856 7.345 72.1895 7.34068 72.4033 7.29126ZM73.4163 18.08C75.5454 17.8081 77.0682 15.7728 76.8266 13.5219C76.5849 11.2709 74.6694 9.64744 72.5367 9.88607C70.3816 10.1272 68.825 12.1765 69.0692 14.451C69.3133 16.7256 71.2648 18.3547 73.4163 18.08Z" fill="#FEFEFE"/>
<path d="M85.6932 7.72598C85.6935 7.60394 85.7935 7.50563 85.9156 7.50714C86.3287 7.51226 86.7483 7.51224 87.1588 7.50749C90.3645 7.47041 93.5915 7.55827 96.7964 7.50379C96.9185 7.50172 97.0187 7.59997 97.0188 7.72207L97.0204 9.74235C97.0205 9.86609 96.9179 9.96509 96.7942 9.96153C95.6228 9.92772 94.2832 9.9541 93.1006 9.96212C92.9778 9.96295 92.8798 10.0645 92.883 10.1872C92.9338 12.1344 92.8831 14.4143 92.8828 16.3607L92.886 20.2779C92.8861 20.3993 92.7873 20.4973 92.666 20.4965C91.8054 20.4907 90.9447 20.4918 90.0841 20.4999C89.9646 20.501 89.8663 20.4061 89.8641 20.2867C89.8431 19.1576 89.863 17.9607 89.8629 16.8359V10.1781C89.8629 10.0575 89.7651 9.95971 89.6445 9.95983L85.9099 9.96364C85.7912 9.96376 85.6941 9.86904 85.6922 9.75038C85.6819 9.08827 85.6914 8.39168 85.6932 7.72598Z" fill="#FEFEFE"/>
<path d="M103.07 7.72092C103.073 7.60245 103.171 7.5085 103.289 7.50902C104.147 7.51284 105.005 7.51011 105.862 7.50083C105.984 7.49951 106.083 7.59766 106.083 7.71924L106.082 20.2776C106.081 20.4004 105.98 20.499 105.857 20.4965C105.012 20.4793 104.133 20.4913 103.285 20.4962C103.168 20.4969 103.071 20.4037 103.067 20.2859C103.054 19.7766 103.055 19.2338 103.066 18.7334C103.141 15.0845 102.973 11.3673 103.07 7.72092Z" fill="#FEFEFE"/>
<path d="M118.264 7.29126H119.35C119.775 7.38562 120.139 7.38253 120.644 7.51005C122.234 7.90076 123.621 8.92257 124.519 10.3643C125.424 11.8519 125.736 13.6573 125.388 15.3873C125.037 17.1447 124.104 18.5598 122.682 19.5371C121.891 20.0762 121.001 20.4314 120.071 20.5793C119.709 20.6356 119.345 20.6527 118.984 20.7087H118.621C118.27 20.6489 117.907 20.6312 117.552 20.5751C116.626 20.4269 115.74 20.0788 114.947 19.5525C113.6 18.6611 112.642 17.2403 112.285 15.6025C111.428 11.5642 113.781 7.95249 117.648 7.37601C117.856 7.34497 118.057 7.34014 118.264 7.29126ZM119.268 18.0821C121.399 17.8152 122.926 15.7783 122.684 13.5237C122.444 11.269 120.526 9.64363 118.393 9.88616C116.243 10.1305 114.692 12.1777 114.934 14.4496C115.177 16.7216 117.121 18.351 119.268 18.0821Z" fill="#FEFEFE"/>
<path d="M140.501 7.7217C140.501 7.60148 140.599 7.50424 140.719 7.50417L143.26 7.50257C143.377 7.5025 143.474 7.59508 143.477 7.71235C143.49 8.28955 143.475 8.95254 143.475 9.51286L143.476 13.3064C143.476 13.8914 143.505 19.4916 143.446 20.3807C143.441 20.456 143.385 20.496 143.309 20.4938C142.608 20.4734 141.832 20.4918 141.123 20.491C141.066 20.491 141.012 20.4691 140.973 20.4282C140.741 20.1849 140.402 19.7503 140.209 19.5155L138.74 17.7231C137.504 16.2149 136.204 14.6757 134.977 13.1481C134.844 12.982 134.566 13.0849 134.568 13.2979C134.575 14.0318 134.553 14.8919 134.552 15.5264L134.553 20.2759C134.554 20.3971 134.455 20.4951 134.334 20.4943C133.484 20.4892 132.634 20.4895 131.784 20.4954C131.671 20.4961 131.576 20.4108 131.57 20.2981C131.542 19.8001 131.561 19.0759 131.561 18.63L131.562 15.2641L131.561 10.4085C131.561 9.54138 131.543 8.5881 131.573 7.71347C131.577 7.59668 131.673 7.5048 131.79 7.50492L133.96 7.5072C134.017 7.50726 134.073 7.52981 134.112 7.57182C134.324 7.79867 134.62 8.18022 134.802 8.40345L136.119 10.0163L140.101 14.8853C140.232 15.0455 140.492 14.9504 140.49 14.7435C140.462 12.4365 140.492 10.0228 140.501 7.7217Z" fill="#FEFEFE"/>
</g>
<defs>
<clipPath id="clip0_2541_6982">
<rect width="97.9099" height="13.4174" fill="white" transform="translate(45.5703 7.29126)"/>
</clipPath>
</defs>
</svg>
