<svg width="89" height="142" viewBox="0 0 89 142" fill="none" xmlns="http://www.w3.org/2000/svg">
<path d="M70.5541 8.81756C72.8932 8.81756 75.1364 9.74673 76.7903 11.4007C78.4442 13.0546 79.3734 15.2978 79.3734 17.6368V123.468C79.3734 125.807 78.4442 128.05 76.7903 129.704C75.1364 131.358 72.8932 132.287 70.5541 132.287H17.6385C15.2995 132.287 13.0563 131.358 11.4024 129.704C9.74844 128.05 8.81927 125.807 8.81927 123.468V17.6368C8.81927 15.2978 9.74844 13.0546 11.4024 11.4007C13.0563 9.74673 15.2995 8.81756 17.6385 8.81756H70.5541ZM17.6385 -0.00170898C12.9605 -0.00170898 8.47407 1.85663 5.16621 5.1645C1.85834 8.47237 0 12.9588 0 17.6368V123.468C0 128.146 1.85834 132.632 5.16621 135.94C8.47407 139.248 12.9605 141.107 17.6385 141.107H70.5541C75.2322 141.107 79.7186 139.248 83.0265 135.94C86.3343 132.632 88.1927 128.146 88.1927 123.468V17.6368C88.1927 12.9588 86.3343 8.47237 83.0265 5.1645C79.7186 1.85663 75.2322 -0.00170898 70.5541 -0.00170898L17.6385 -0.00170898Z" fill="white"/>
<path d="M44.0966 123.468C46.4356 123.468 48.6788 122.539 50.3328 120.885C51.9867 119.231 52.9159 116.988 52.9159 114.649C52.9159 112.31 51.9867 110.067 50.3328 108.413C48.6788 106.759 46.4356 105.83 44.0966 105.83C41.7576 105.83 39.5144 106.759 37.8604 108.413C36.2065 110.067 35.2773 112.31 35.2773 114.649C35.2773 116.988 36.2065 119.231 37.8604 120.885C39.5144 122.539 41.7576 123.468 44.0966 123.468Z" fill="white"/>
</svg>
