<svg width="142" height="142" viewBox="0 0 142 142" fill="none" xmlns="http://www.w3.org/2000/svg">
<g clip-path="url(#clip0_1808_6534)">
<path fill-rule="evenodd" clip-rule="evenodd" d="M80.6333 20.1597C77.9601 20.1597 75.3965 21.2216 73.5063 23.1118C71.6161 25.002 70.5541 27.5657 70.5541 30.2388V35.2784H76.8536C84.5389 35.2784 91.9095 38.3314 97.3439 43.7658C102.778 49.2001 105.831 56.5707 105.831 64.256H141.108V30.2388C141.108 27.5657 140.046 25.002 138.156 23.1118C136.266 21.2216 133.702 20.1597 131.029 20.1597H80.6333ZM78.1135 134.81C78.1135 134.38 78.0967 133.953 78.0631 133.53C85.5334 133.218 92.594 130.031 97.7689 124.634C102.944 119.237 105.833 112.049 105.831 104.573V76.855H141.108V131.03C141.108 133.704 140.046 136.267 138.156 138.158C136.266 140.048 133.702 141.11 131.029 141.11H80.6333C79.4289 141.11 78.2341 140.895 77.1056 140.475C77.7708 138.701 78.1068 136.813 78.1135 134.81ZM119.922 47.8774H119.69C117.695 47.8468 115.794 47.029 114.4 45.6023C113.005 44.1757 112.232 42.2557 112.247 40.2609C112.262 38.2662 113.065 36.3583 114.481 34.9531C115.897 33.548 117.811 32.7595 119.806 32.7595C121.801 32.7595 123.715 33.548 125.131 34.9531C126.547 36.3583 127.35 38.2662 127.365 40.2609C127.38 42.2557 126.607 44.1757 125.212 45.6023C123.818 47.029 121.916 47.8468 119.922 47.8774ZM12.599 64.256C12.599 62.1696 14.2923 60.4763 16.3786 60.4763H76.8536C78.94 60.4763 80.6333 62.1696 80.6333 64.256V104.573C80.6333 105.575 80.2351 106.536 79.5263 107.245C78.8174 107.954 77.856 108.352 76.8536 108.352H16.3786C15.3762 108.352 14.4148 107.954 13.706 107.245C12.9972 106.536 12.599 105.575 12.599 104.573V64.256ZM52.9156 120.951H76.8536C85.8946 120.951 93.2323 113.624 93.2323 104.573V64.256C93.2323 55.215 85.8946 47.8774 76.8536 47.8774H16.3786C7.33763 47.8774 0 55.215 0 64.256V104.573C0 113.624 7.33763 120.951 16.3786 120.951H40.3167V128.511H31.4974C29.8267 128.511 28.2244 129.174 27.043 130.356C25.8616 131.537 25.1979 133.139 25.1979 134.81C25.1979 136.481 25.8616 138.083 27.043 139.265C28.2244 140.446 29.8267 141.11 31.4974 141.11H61.7349C63.4056 141.11 65.0079 140.446 66.1893 139.265C67.3707 138.083 68.0343 136.481 68.0343 134.81C68.0343 133.139 67.3707 131.537 66.1893 130.356C65.0079 129.174 63.4056 128.511 61.7349 128.511H52.9156V120.951Z" fill="white"/>
</g>
<defs>
<clipPath id="clip0_1808_6534">
<rect width="141.108" height="141.108" fill="white"/>
</clipPath>
</defs>
</svg>
