<svg width="24" height="24" viewBox="0 0 24 24" fill="none" xmlns="http://www.w3.org/2000/svg">
<path d="M17.3006 6.3C17.2081 6.2073 17.0982 6.13375 16.9772 6.08357C16.8563 6.03339 16.7266 6.00756 16.5956 6.00756C16.4647 6.00756 16.335 6.03339 16.214 6.08357C16.093 6.13375 15.9831 6.2073 15.8906 6.3L10.2506 11.94L11.6606 13.35L17.3006 7.7C17.6806 7.32 17.6806 6.68 17.3006 6.3ZM21.5406 6.29L11.6606 16.17L8.18063 12.7C7.99365 12.513 7.74005 12.408 7.47563 12.408C7.2112 12.408 6.9576 12.513 6.77063 12.7C6.58365 12.887 6.4786 13.1406 6.4786 13.405C6.4786 13.6694 6.58365 13.923 6.77063 14.11L10.9506 18.29C11.3406 18.68 11.9706 18.68 12.3606 18.29L22.9506 7.71C23.0433 7.61749 23.1169 7.5076 23.1671 7.38662C23.2172 7.26565 23.2431 7.13597 23.2431 7.005C23.2431 6.87403 23.2172 6.74435 23.1671 6.62337C23.1169 6.5024 23.0433 6.39251 22.9506 6.3H22.9406C22.8504 6.2056 22.7421 6.13029 22.6223 6.07853C22.5024 6.02677 22.3733 5.99961 22.2427 5.99868C22.1122 5.99775 21.9827 6.02305 21.8621 6.0731C21.7415 6.12314 21.6322 6.1969 21.5406 6.29ZM1.12062 14.12L5.30063 18.3C5.69063 18.69 6.32063 18.69 6.71063 18.3L7.41062 17.6L2.53062 12.7C2.43811 12.6073 2.32822 12.5337 2.20725 12.4836C2.08628 12.4334 1.95659 12.4076 1.82563 12.4076C1.69466 12.4076 1.56497 12.4334 1.444 12.4836C1.32303 12.5337 1.21314 12.6073 1.12062 12.7C0.730625 13.09 0.730625 13.73 1.12062 14.12Z" fill="white"/>
</svg>
