<svg width="24" height="24" viewBox="0 0 24 24" fill="none" xmlns="http://www.w3.org/2000/svg">
<path d="M16.5903 9H15.0003V4C15.0003 3.45 14.5503 3 14.0003 3H10.0003C9.45026 3 9.00026 3.45 9.00026 4V9H7.41026C6.52026 9 6.07026 10.08 6.70026 10.71L11.2903 15.3C11.6803 15.69 12.3103 15.69 12.7003 15.3L17.2903 10.71C17.9203 10.08 17.4803 9 16.5903 9Z" fill="white"/>
<path d="M6 20C5.45 20 5 19.55 5 19C5 18.45 5.45 18 6 18H18C18.55 18 19 18.45 19 19C19 19.55 18.55 20 18 20H6Z" fill="white"/>
</svg>
