<svg width="64" height="64" viewBox="0 0 64 64" fill="none" xmlns="http://www.w3.org/2000/svg">
<rect width="64" height="64" rx="21.3333" fill="white" fill-opacity="0.04"/>
<circle cx="32" cy="31" r="7" fill="white"/>
<path d="M45.086 22.492L32.336 18.242C32.1179 18.1693 31.8821 18.1693 31.664 18.242L18.914 22.492C18.7024 22.5625 18.5184 22.6978 18.388 22.8787C18.2576 23.0596 18.1875 23.277 18.1875 23.5V34.125C18.1875 34.4068 18.2994 34.6771 18.4987 34.8763C18.698 35.0756 18.9682 35.1875 19.25 35.1875C19.5318 35.1875 19.802 35.0756 20.0013 34.8763C20.2006 34.6771 20.3125 34.4068 20.3125 34.125V24.9742L24.7737 26.4604C23.5884 28.3753 23.2115 30.6823 23.7257 32.8749C24.2399 35.0674 25.6032 36.9663 27.5162 38.1545C25.1256 39.0922 23.0591 40.7882 21.5477 43.1071C21.4691 43.224 21.4145 43.3552 21.387 43.4934C21.3596 43.6315 21.3599 43.7737 21.3879 43.9116C21.416 44.0496 21.4711 44.1807 21.5502 44.2972C21.6293 44.4137 21.7308 44.5133 21.8487 44.5902C21.9667 44.6671 22.0987 44.7198 22.2372 44.7453C22.3757 44.7707 22.5179 44.7684 22.6555 44.7384C22.793 44.7084 22.9233 44.6514 23.0386 44.5706C23.154 44.4898 23.2521 44.3869 23.3273 44.2679C25.3288 41.1973 28.4898 39.4375 32 39.4375C35.5102 39.4375 38.6712 41.1973 40.6727 44.2679C40.8285 44.4995 41.0692 44.6605 41.3428 44.716C41.6164 44.7716 41.9008 44.7172 42.1346 44.5647C42.3685 44.4122 42.5329 44.1738 42.5923 43.9011C42.6518 43.6283 42.6015 43.3431 42.4523 43.1071C40.9409 40.7882 38.8664 39.0922 36.4837 38.1545C38.395 36.9663 39.757 35.0687 40.2711 32.8777C40.7852 30.6868 40.4095 28.3814 39.2263 26.467L45.086 24.5147C45.2976 24.4442 45.4817 24.3089 45.6121 24.128C45.7425 23.9471 45.8127 23.7297 45.8127 23.5067C45.8127 23.2836 45.7425 23.0662 45.6121 22.8853C45.4817 22.7044 45.2976 22.5691 45.086 22.4986V22.492ZM38.375 30.9375C38.3753 31.9454 38.1366 32.9389 37.6786 33.8367C37.2205 34.7344 36.5561 35.5108 35.7399 36.1021C34.9237 36.6933 33.979 37.0826 32.9832 37.2381C31.9874 37.3935 30.9689 37.3106 30.0113 36.9962C29.0538 36.6818 28.1844 36.1449 27.4745 35.4294C26.7647 34.7139 26.2346 33.8404 25.9277 32.8804C25.6208 31.9204 25.5459 30.9013 25.7092 29.9068C25.8724 28.9122 26.2691 27.9705 26.8668 27.159L31.664 28.7528C31.8821 28.8255 32.1179 28.8255 32.336 28.7528L37.1332 27.159C37.9403 28.2534 38.3755 29.5777 38.375 30.9375Z" fill="white"/>
</svg>
