<svg width="64" height="64" viewBox="0 0 64 64" fill="none" xmlns="http://www.w3.org/2000/svg">
<rect width="64" height="64" rx="21.3333" fill="white" fill-opacity="0.04"/>
<path d="M32 46.1667C37.8331 46.1667 42.625 41.5441 42.625 35.6111C42.625 34.1548 42.5506 32.5936 41.7431 30.1668C40.9356 27.7401 40.7734 27.427 39.9199 25.9282C39.5551 28.9861 37.6036 30.2611 37.1078 30.6421C37.1078 30.2455 35.9277 25.863 34.1377 23.2401C32.3804 20.6667 29.9905 18.9787 28.5894 17.8333C28.5894 20.0079 27.9781 23.2408 27.1019 24.8883C26.2264 26.5352 26.062 26.5954 24.9677 27.8208C23.8733 29.0463 23.3718 29.4252 22.4566 30.9127C21.5415 32.4002 21.375 34.3814 21.375 35.8378C21.375 41.7708 26.1669 46.1667 32 46.1667Z" fill="white" stroke="white" stroke-width="2.83333" stroke-linejoin="round"/>
</svg>
