<svg width="64" height="64" viewBox="0 0 64 64" fill="none" xmlns="http://www.w3.org/2000/svg">
<rect width="64" height="64" rx="21.3333" fill="white" fill-opacity="0.04"/>
<path d="M23.4972 37.6667C22.7181 37.6667 22.0513 37.3895 21.4969 36.8351C20.9425 36.2807 20.6648 35.6135 20.6639 34.8334C20.6629 34.0532 20.9406 33.3865 21.4969 32.833C22.0532 32.2796 22.7199 32.0019 23.4972 32C24.2745 31.9981 24.9418 32.2758 25.499 32.833C26.0562 33.3902 26.3334 34.057 26.3306 34.8334C26.3277 35.6097 26.0505 36.2769 25.499 36.8351C24.9474 37.3933 24.2802 37.6705 23.4972 37.6667ZM40.4972 37.6667C39.7181 37.6667 39.0513 37.3895 38.4969 36.8351C37.9425 36.2807 37.6648 35.6135 37.6639 34.8334C37.6629 34.0532 37.9406 33.3865 38.4969 32.833C39.0532 32.2796 39.7199 32.0019 40.4972 32C41.2745 31.9981 41.9417 32.2758 42.499 32.833C43.0562 33.3902 43.3334 34.057 43.3306 34.8334C43.3277 35.6097 43.0505 36.2769 42.499 36.8351C41.9474 37.3933 41.2802 37.6705 40.4972 37.6667ZM31.9972 36.25C31.0056 36.25 30.1674 35.9077 29.4826 35.2229C28.7979 34.5382 28.4556 33.7 28.4556 32.7084C28.4556 31.7167 28.7979 30.8785 29.4826 30.1938C30.1674 29.509 31.0056 29.1667 31.9972 29.1667C32.9889 29.1667 33.8271 29.509 34.5118 30.1938C35.1965 30.8785 35.5389 31.7167 35.5389 32.7084C35.5389 33.7 35.1965 34.5382 34.5118 35.2229C33.8271 35.9077 32.9889 36.25 31.9972 36.25ZM25.0556 44.75C25.2208 43.9236 25.516 43.1737 25.941 42.5004C26.366 41.827 26.8854 41.231 27.4993 40.7125C28.1132 40.194 28.8041 39.7926 29.5719 39.5084C30.3397 39.2241 31.1482 39.0824 31.9972 39.0834C32.8463 39.0843 33.6552 39.226 34.424 39.5084C35.1928 39.7907 35.8831 40.1921 36.4951 40.7125C37.1071 41.2329 37.6266 41.8293 38.0535 42.5018C38.4804 43.1742 38.7755 43.9236 38.9389 44.75H25.0556ZM19.6368 44.75C19.141 44.75 18.716 44.5847 18.3618 44.2542C18.0076 43.9236 17.8306 43.5459 17.8306 43.1209C17.8306 42.2 18.3916 41.2967 19.5136 40.4108C20.6356 39.5249 21.928 39.0824 23.391 39.0834C23.7924 39.0834 24.1819 39.1188 24.5597 39.1896C24.9375 39.2604 25.3035 39.3667 25.6576 39.5084C24.9493 40.1931 24.359 40.9784 23.8868 41.8643C23.4146 42.7502 23.0958 43.7121 22.9306 44.75H19.6368ZM41.0639 44.75C40.8986 43.7111 40.5799 42.7492 40.1076 41.8643C39.6354 40.9793 39.0451 40.194 38.3368 39.5084C38.691 39.3667 39.0513 39.2604 39.4177 39.1896C39.7842 39.1188 40.1676 39.0834 40.5681 39.0834C42.0319 39.0834 43.3306 39.5263 44.4639 40.4122C45.5972 41.2981 46.1639 42.201 46.1639 43.1209C46.1639 43.5695 45.9868 43.9534 45.6326 44.2726C45.2785 44.5918 44.8417 44.751 44.3222 44.75H41.0639ZM17.2639 30.8667C17.0278 30.5361 16.9333 30.182 16.9806 29.8042C17.0278 29.4264 17.2167 29.1195 17.5472 28.8834L30.2618 19.1438C30.7812 18.7424 31.3597 18.5417 31.9972 18.5417C32.6347 18.5417 33.2132 18.7424 33.7326 19.1438L37.6639 22.1542V21.375C37.6639 20.7847 37.8707 20.2832 38.2844 19.8705C38.6981 19.4578 39.1996 19.251 39.7889 19.25C40.3782 19.2491 40.8802 19.4559 41.2948 19.8705C41.7094 20.2851 41.9158 20.7866 41.9139 21.375V25.4125L46.4472 28.8834C46.7542 29.1195 46.9374 29.4264 46.9969 29.8042C47.0564 30.182 46.9676 30.5361 46.7306 30.8667C46.4935 31.1972 46.1866 31.3861 45.8097 31.4334C45.4329 31.4806 45.0787 31.3861 44.7472 31.15L31.9972 21.4104L19.2472 31.15C18.9167 31.3861 18.5625 31.4806 18.1847 31.4334C17.8069 31.3861 17.5 31.1972 17.2639 30.8667Z" fill="white"/>
</svg>
