<svg width="64" height="64" viewBox="0 0 64 64" fill="none" xmlns="http://www.w3.org/2000/svg">
<rect width="64" height="64" rx="21.3333" fill="white" fill-opacity="0.04"/>
<g clip-path="url(#clip0_2424_12932)">
<path fill-rule="evenodd" clip-rule="evenodd" d="M17.2982 19.233C17.9393 18.9683 18.6606 19.318 19.1147 19.8426C19.4411 20.22 19.8466 20.521 20.3023 20.7242C20.8441 20.9664 21.4398 21.0632 22.0304 21.0051C22.6211 20.9469 23.1864 20.7358 23.6706 20.3926C24.1548 20.0494 24.5411 19.5859 24.7916 19.0478C25.042 18.5097 25.1479 17.9156 25.0987 17.3242C25.0453 16.6587 25.2809 15.9302 25.888 15.646L26.8837 15.1773C27.4436 14.9443 28.0727 14.9411 28.6349 15.1683C29.1971 15.3956 29.6472 15.835 29.8879 16.3916L31.0609 19.1067L30.9346 19.3812L30.9322 19.386L23.185 37.2773L22.3447 39.1886L15.1659 22.5772C14.9501 22.0392 14.9447 21.4396 15.1507 20.8978C15.3568 20.3561 15.7593 19.9117 16.2782 19.6532L17.2982 19.233ZM44.7945 24.0999C45.2437 23.5704 45.9675 23.2232 46.6086 23.4854L47.6845 23.9299C48.2173 24.1943 48.6308 24.6501 48.8424 25.206C49.054 25.762 49.0481 26.3773 48.8259 26.9292L39.9082 47.572C39.6621 48.1437 39.2004 48.5952 38.6234 48.8285C38.0463 49.0617 37.4006 49.0579 36.8263 48.8179L26.0483 44.2254C25.4768 43.9798 25.0252 43.5187 24.7915 42.9422C24.5578 42.3657 24.5609 41.7203 24.8 41.146L25.9682 38.4916L33.7226 20.5857C33.9682 20.0142 34.4293 19.5626 35.0059 19.3289C35.5824 19.0952 36.2278 19.0983 36.802 19.3374L37.856 19.8304C38.4632 20.1146 38.6987 20.8432 38.638 21.511C38.5932 22.018 38.6587 22.5287 38.8302 23.0079C39.0017 23.4871 39.275 23.9235 39.6313 24.2869C39.9726 24.6329 40.382 24.9043 40.8337 25.0837C41.2854 25.2632 41.7695 25.3467 42.2552 25.3291C42.7409 25.3116 43.2177 25.1932 43.6552 24.9816C44.0928 24.77 44.4815 24.4697 44.7969 24.0999" fill="white"/>
</g>
<defs>
<clipPath id="clip0_2424_12932">
<rect width="34" height="34" fill="white" transform="translate(15 15)"/>
</clipPath>
</defs>
</svg>
