<svg width="64" height="64" viewBox="0 0 64 64" fill="none" xmlns="http://www.w3.org/2000/svg">
<rect width="64" height="64" rx="21.3333" fill="white" fill-opacity="0.04"/>
<path d="M30.8151 34.3704V43.8519H26.0744C25.1314 43.8519 24.227 43.4773 23.5602 42.8105C22.8934 42.1437 22.5188 41.2393 22.5188 40.2963V35.5556C22.5188 35.2412 22.6437 34.9398 22.8659 34.7175C23.0882 34.4952 23.3897 34.3704 23.704 34.3704H30.8151ZM40.2966 34.3704C40.6109 34.3704 40.9124 34.4952 41.1346 34.7175C41.3569 34.9398 41.4818 35.2412 41.4818 35.5556V40.2963C41.4818 41.2393 41.1072 42.1437 40.4404 42.8105C39.7736 43.4773 38.8692 43.8519 37.9262 43.8519H33.1855V34.3704H40.2966ZM37.3336 20.1482C38.0335 20.148 38.722 20.3249 39.3351 20.6625C39.9482 21 40.4659 21.4872 40.8401 22.0787C41.2142 22.6701 41.4327 23.3466 41.475 24.0452C41.5174 24.7438 41.3823 25.4417 41.0824 26.0741H41.4818C42.1104 26.0741 42.7133 26.3238 43.1579 26.7683C43.6024 27.2129 43.8521 27.8158 43.8521 28.4445V29.6296C43.8521 30.2583 43.6024 30.8612 43.1579 31.3057C42.7133 31.7503 42.1104 32 41.4818 32H33.1855V26.0741H30.8151V32H22.5188C21.8901 32 21.2872 31.7503 20.8427 31.3057C20.3982 30.8612 20.1484 30.2583 20.1484 29.6296V28.4445C20.1484 27.8158 20.3982 27.2129 20.8427 26.7683C21.2872 26.3238 21.8901 26.0741 22.5188 26.0741H22.9182C22.655 25.5184 22.5185 24.9112 22.5188 24.2963C22.5188 22.0053 24.376 20.1482 26.6468 20.1482C28.7268 20.1126 30.5721 21.4424 31.8391 23.6255L32.0003 23.9135C33.2246 21.645 35.0344 20.2228 37.0859 20.1505L37.3336 20.1482ZM26.667 22.5185C26.1955 22.5185 25.7433 22.7058 25.4099 23.0392C25.0765 23.3726 24.8892 23.8248 24.8892 24.2963C24.8892 24.7678 25.0765 25.22 25.4099 25.5534C25.7433 25.8868 26.1955 26.0741 26.667 26.0741H30.392C29.5138 23.8163 28.0821 22.4948 26.667 22.5185ZM37.3135 22.5185C35.915 22.4948 34.4868 23.8175 33.6086 26.0741H37.3336C37.8051 26.0714 38.2562 25.8815 38.5878 25.5463C38.9193 25.211 39.104 24.7577 39.1013 24.2862C39.0987 23.8147 38.9088 23.3636 38.5735 23.0321C38.2382 22.7006 37.785 22.5159 37.3135 22.5185Z" fill="white"/>
</svg>
