<svg width="24" height="24" viewBox="0 0 24 24" fill="none" xmlns="http://www.w3.org/2000/svg">
<path d="M15.75 1.99999C16.3467 1.99999 16.919 2.23705 17.341 2.659C17.7629 3.08096 18 3.65326 18 4.24999V19.75C18 20.3467 17.7629 20.919 17.341 21.341C16.919 21.7629 16.3467 22 15.75 22H8.25C7.65326 22 7.08097 21.7629 6.65901 21.341C6.23705 20.919 6 20.3467 6 19.75V4.24999C6 3.65326 6.23705 3.08096 6.65901 2.659C7.08097 2.23705 7.65326 1.99999 8.25 1.99999H15.75ZM15.75 3.49999H8.25C8.05109 3.49999 7.86032 3.57901 7.71967 3.71966C7.57902 3.86031 7.5 4.05108 7.5 4.24999V19.75C7.5 20.164 7.836 20.5 8.25 20.5H15.75C15.9489 20.5 16.1397 20.421 16.2803 20.2803C16.421 20.1397 16.5 19.9489 16.5 19.75V4.24999C16.5 4.05108 16.421 3.86031 16.2803 3.71966C16.1397 3.57901 15.9489 3.49999 15.75 3.49999Z" fill="white"/>
<path d="M13.7796 17.719C13.6388 17.5785 13.4479 17.4998 13.249 17.5L10.749 17.504C10.5501 17.5043 10.3594 17.5836 10.219 17.7244C10.0785 17.8652 9.99974 18.0561 10 18.255C10.0003 18.4539 10.0795 18.6446 10.2204 18.7851C10.3612 18.9255 10.5521 19.0043 10.751 19.004L13.251 19C13.4499 18.9998 13.6406 18.9205 13.781 18.7796C13.9215 18.6388 14.0003 18.4479 14 18.249C13.9997 18.0501 13.9205 17.8594 13.7796 17.719Z" fill="white"/>
</svg>
