<svg width="64" height="64" viewBox="0 0 64 64" fill="none" xmlns="http://www.w3.org/2000/svg">
<rect width="64" height="64" rx="21.3333" fill="white" fill-opacity="0.04"/>
<path fill-rule="evenodd" clip-rule="evenodd" d="M43.3385 34.8333V41.9166C43.3385 43.0438 42.8908 44.1248 42.0938 44.9218C41.2967 45.7189 40.2157 46.1666 39.0885 46.1666H24.9219C23.7947 46.1666 22.7137 45.7189 21.9167 44.9218C21.1196 44.1248 20.6719 43.0438 20.6719 41.9166V34.8333H43.3385ZM32.0052 19.25C33.8894 19.25 35.6659 19.709 37.2285 20.5235L38.087 19.665C38.2176 19.5297 38.374 19.4218 38.5468 19.3476C38.7196 19.2733 38.9055 19.2342 39.0936 19.2326C39.2818 19.231 39.4683 19.2668 39.6424 19.338C39.8165 19.4093 39.9747 19.5145 40.1077 19.6475C40.2407 19.7805 40.3459 19.9387 40.4171 20.1128C40.4884 20.2869 40.5242 20.4734 40.5226 20.6615C40.5209 20.8496 40.4819 21.0355 40.4076 21.2084C40.3334 21.3812 40.2254 21.5375 40.0901 21.6682L39.5943 22.164C40.7746 23.2258 41.718 24.5243 42.3631 25.9749C43.0082 27.4255 43.3406 28.9957 43.3385 30.5833V32H20.6719V30.5833C20.6702 28.9958 21.0029 27.4258 21.6482 25.9755C22.2936 24.5251 23.2372 23.2269 24.4175 22.1655L23.9203 21.6696C23.6545 21.404 23.5051 21.0436 23.5049 20.6678C23.5048 20.292 23.654 19.9316 23.9196 19.6657C24.1852 19.3999 24.5456 19.2505 24.9214 19.2504C25.2972 19.2502 25.6576 19.3994 25.9235 19.665L26.782 20.5235C28.3957 19.6862 30.1872 19.2494 32.0052 19.25ZM27.7552 24.9166C27.3795 24.9166 27.0192 25.0659 26.7535 25.3316C26.4878 25.5972 26.3385 25.9576 26.3385 26.3333C26.3385 26.709 26.4878 27.0693 26.7535 27.335C27.0192 27.6007 27.3795 27.75 27.7552 27.75C28.1309 27.75 28.4913 27.6007 28.7569 27.335C29.0226 27.0693 29.1719 26.709 29.1719 26.3333C29.1719 25.9576 29.0226 25.5972 28.7569 25.3316C28.4913 25.0659 28.1309 24.9166 27.7552 24.9166ZM36.2552 24.9166C35.8795 24.9166 35.5192 25.0659 35.2535 25.3316C34.9878 25.5972 34.8385 25.9576 34.8385 26.3333C34.8385 26.709 34.9878 27.0693 35.2535 27.335C35.5192 27.6007 35.8795 27.75 36.2552 27.75C36.6309 27.75 36.9913 27.6007 37.257 27.335C37.5226 27.0693 37.6719 26.709 37.6719 26.3333C37.6719 25.9576 37.5226 25.5972 37.257 25.3316C36.9913 25.0659 36.6309 24.9166 36.2552 24.9166Z" fill="white"/>
</svg>
