<svg width="64" height="64" viewBox="0 0 64 64" fill="none" xmlns="http://www.w3.org/2000/svg">
<rect width="64" height="64" rx="21.3333" fill="white" fill-opacity="0.04"/>
<path d="M39.1525 43.73C37.7642 45.0758 36.2484 44.8633 34.7892 44.2258C33.245 43.5742 31.8284 43.5458 30.1992 44.2258C28.1592 45.1042 27.0825 44.8492 25.8642 43.73C18.9509 36.6042 19.9709 25.7525 27.8192 25.3558C29.7317 25.455 31.0634 26.4042 32.1825 26.4892C33.8542 26.1492 35.455 25.1717 37.24 25.2992C39.3792 25.4692 40.9942 26.3192 42.0567 27.8492C37.6367 30.4983 38.685 36.3208 42.7367 37.95C41.9292 40.075 40.8809 42.1858 39.1384 43.7442L39.1525 43.73ZM32.0409 25.2708C31.8284 22.1117 34.3925 19.505 37.3392 19.25C37.75 22.905 34.0242 25.625 32.0409 25.2708Z" fill="white"/>
</svg>
