<svg width="64" height="64" viewBox="0 0 64 64" fill="none" xmlns="http://www.w3.org/2000/svg">
<rect width="64" height="64" rx="21.3333" fill="white" fill-opacity="0.04"/>
<path d="M18.4062 25.1999C18.4062 24.2982 18.7645 23.4334 19.4021 22.7958C20.0397 22.1581 20.9045 21.7999 21.8062 21.7999H42.2062C43.108 21.7999 43.9728 22.1581 44.6104 22.7958C45.248 23.4334 45.6062 24.2982 45.6062 25.1999V37.0999C45.6062 38.0017 45.248 38.8665 44.6104 39.5041C43.9728 40.1417 43.108 40.4999 42.2062 40.4999H21.8062C20.9045 40.4999 20.0397 40.1417 19.4021 39.5041C18.7645 38.8665 18.4062 38.0017 18.4062 37.0999V25.1999ZM24.3562 42.1999C24.1308 42.1999 23.9146 42.2895 23.7552 42.4489C23.5958 42.6083 23.5062 42.8245 23.5062 43.0499C23.5062 43.2754 23.5958 43.4916 23.7552 43.651C23.9146 43.8104 24.1308 43.8999 24.3562 43.8999H39.6562C39.8817 43.8999 40.0979 43.8104 40.2573 43.651C40.4167 43.4916 40.5062 43.2754 40.5062 43.0499C40.5062 42.8245 40.4167 42.6083 40.2573 42.4489C40.0979 42.2895 39.8817 42.1999 39.6562 42.1999H24.3562Z" fill="white"/>
</svg>
