<svg width="320" height="64" viewBox="0 0 320 64" fill="none" xmlns="http://www.w3.org/2000/svg">
<rect x="8" width="64" height="64" rx="21.3333" fill="white" fill-opacity="0.04"/>
<path fill-rule="evenodd" clip-rule="evenodd" d="M51.3385 34.8332V41.9165C51.3385 43.0437 50.8908 44.1247 50.0938 44.9217C49.2967 45.7187 48.2157 46.1665 47.0885 46.1665H32.9219C31.7947 46.1665 30.7137 45.7187 29.9167 44.9217C29.1196 44.1247 28.6719 43.0437 28.6719 41.9165V34.8332H51.3385ZM40.0052 19.2498C41.8894 19.2498 43.6659 19.7088 45.2285 20.5234L46.087 19.6649C46.2176 19.5296 46.374 19.4217 46.5468 19.3474C46.7196 19.2732 46.9055 19.2341 47.0936 19.2325C47.2818 19.2308 47.4683 19.2667 47.6424 19.3379C47.8165 19.4091 47.9747 19.5143 48.1077 19.6474C48.2407 19.7804 48.3459 19.9385 48.4171 20.1126C48.4884 20.2867 48.5242 20.4733 48.5226 20.6614C48.5209 20.8495 48.4819 21.0354 48.4076 21.2082C48.3334 21.3811 48.2254 21.5374 48.0901 21.6681L47.5943 22.1639C48.7746 23.2257 49.718 24.5241 50.3631 25.9748C51.0082 27.4254 51.3406 28.9956 51.3385 30.5832V31.9998H28.6719V30.5832C28.6702 28.9957 29.0029 27.4257 29.6482 25.9753C30.2936 24.525 31.2372 23.2268 32.4175 22.1653L31.9203 21.6695C31.6545 21.4039 31.5051 21.0435 31.5049 20.6677C31.5048 20.2919 31.654 19.9314 31.9196 19.6656C32.1852 19.3998 32.5456 19.2504 32.9214 19.2503C33.2972 19.2501 33.6576 19.3993 33.9235 19.6649L34.782 20.5234C36.3957 19.6861 38.1872 19.2493 40.0052 19.2498ZM35.7552 24.9165C35.3795 24.9165 35.0192 25.0658 34.7535 25.3314C34.4878 25.5971 34.3385 25.9574 34.3385 26.3332C34.3385 26.7089 34.4878 27.0692 34.7535 27.3349C35.0192 27.6006 35.3795 27.7498 35.7552 27.7498C36.1309 27.7498 36.4913 27.6006 36.7569 27.3349C37.0226 27.0692 37.1719 26.7089 37.1719 26.3332C37.1719 25.9574 37.0226 25.5971 36.7569 25.3314C36.4913 25.0658 36.1309 24.9165 35.7552 24.9165ZM44.2552 24.9165C43.8795 24.9165 43.5192 25.0658 43.2535 25.3314C42.9878 25.5971 42.8385 25.9574 42.8385 26.3332C42.8385 26.7089 42.9878 27.0692 43.2535 27.3349C43.5192 27.6006 43.8795 27.7498 44.2552 27.7498C44.6309 27.7498 44.9913 27.6006 45.257 27.3349C45.5226 27.0692 45.6719 26.7089 45.6719 26.3332C45.6719 25.9574 45.5226 25.5971 45.257 25.3314C44.9913 25.0658 44.6309 24.9165 44.2552 24.9165Z" fill="white"/>
<rect x="88" width="64" height="64" rx="21.3333" fill="white" fill-opacity="0.04"/>
<path d="M132.75 33.4167V43.9482C132.75 44.2336 132.692 44.516 132.581 44.7787C132.469 45.0414 132.306 45.2789 132.101 45.4771C131.895 45.6753 131.652 45.8301 131.386 45.9322C131.119 46.0344 130.835 46.0819 130.55 46.0718L130.361 46.0562L120 44.7614V33.4167H132.75ZM117.167 33.4167V44.4072L109.732 43.4779C109.047 43.3922 108.416 43.0592 107.959 42.5413C107.502 42.0235 107.25 41.3565 107.25 40.6658V33.4167H117.167ZM130.361 17.9439C130.645 17.9085 130.932 17.9305 131.206 18.0086C131.481 18.0867 131.737 18.2193 131.959 18.3984C132.181 18.5776 132.365 18.7996 132.499 19.0513C132.634 19.303 132.716 19.5792 132.742 19.8635L132.75 20.0519V30.5834H120V19.2387L130.361 17.9439ZM117.167 19.5929V30.5834H107.25V23.3343C107.25 22.6436 107.502 21.9766 107.959 21.4588C108.416 20.9409 109.047 20.6079 109.732 20.5222L117.167 19.5929Z" fill="white"/>
<rect x="168" width="64" height="64" rx="21.3333" fill="white" fill-opacity="0.04"/>
<path d="M207.153 43.73C205.764 45.0758 204.248 44.8633 202.789 44.2258C201.245 43.5742 199.828 43.5458 198.199 44.2258C196.159 45.1042 195.083 44.8492 193.864 43.73C186.951 36.6042 187.971 25.7525 195.819 25.3558C197.732 25.455 199.063 26.4042 200.183 26.4892C201.854 26.1492 203.455 25.1717 205.24 25.2992C207.379 25.4692 208.994 26.3192 210.057 27.8492C205.637 30.4983 206.685 36.3208 210.737 37.95C209.929 40.075 208.881 42.1858 207.138 43.7442L207.153 43.73ZM200.041 25.2708C199.828 22.1117 202.393 19.505 205.339 19.25C205.75 22.905 202.024 25.625 200.041 25.2708Z" fill="white"/>
<rect x="248" width="64" height="64" rx="21.3333" fill="white" fill-opacity="0.04"/>
<path fill-rule="evenodd" clip-rule="evenodd" d="M274.709 36.6608C274.95 36.6746 275.183 36.7498 275.387 36.8792C275.591 37.0086 275.758 37.188 275.873 37.4003L278.554 42.3487C278.78 42.7671 278.885 43.2403 278.858 43.7153C278.831 44.1902 278.672 44.6482 278.399 45.0379C278.126 45.4275 277.75 45.7335 277.313 45.9216C276.876 46.1097 276.395 46.1725 275.924 46.1028L270.357 45.2783C270.118 45.2428 269.892 45.1469 269.701 44.9996C269.51 44.8523 269.359 44.6585 269.264 44.4366C269.168 44.2148 269.131 43.9722 269.156 43.732C269.181 43.4918 269.266 43.2619 269.405 43.0641L270.288 41.8033L270.041 40.4093C270.009 40.226 270.013 40.0382 270.053 39.8564C270.093 39.6747 270.169 39.5027 270.275 39.3503C270.382 39.1978 270.518 39.0678 270.675 38.9678C270.832 38.8678 271.007 38.7997 271.19 38.7673L272.585 38.5223L273.468 37.2614C273.606 37.0636 273.793 36.9045 274.01 36.7991C274.227 36.6938 274.468 36.6456 274.709 36.6593V36.6608ZM283.701 36.6268C283.886 36.5269 284.091 36.4697 284.301 36.4591C284.512 36.4486 284.722 36.485 284.916 36.5658L285.08 36.6466L286.412 37.4158L287.781 37.0489C288.116 36.959 288.472 36.9954 288.783 37.151C289.093 37.3067 289.335 37.5708 289.464 37.8933L289.516 38.0505L289.883 39.419L291.215 40.1883C291.41 40.3012 291.576 40.4594 291.698 40.6496C291.821 40.8398 291.896 41.0565 291.917 41.2816C291.938 41.5066 291.906 41.7336 291.821 41.9433C291.737 42.1531 291.604 42.3397 291.433 42.4875L291.287 42.598L286.591 45.6977C286.209 45.9494 285.768 46.0946 285.311 46.1183C284.855 46.1419 284.401 46.0432 283.995 45.8322C283.59 45.6213 283.248 45.3058 283.006 44.9185C282.764 44.5312 282.629 44.0861 282.617 43.6293L282.621 43.4055L282.958 37.7884C282.973 37.5476 283.049 37.3145 283.179 37.1112C283.308 36.9079 283.488 36.7412 283.701 36.6268ZM280.002 17.8333C281.504 17.8333 282.946 18.4303 284.009 19.493C285.071 20.5557 285.668 21.997 285.668 23.4999V24.9166C285.668 26.6364 286.379 28.1282 287.32 29.6681L288.363 31.3185C288.504 31.5452 288.639 31.7648 288.759 31.9659C289.213 32.7323 289.649 33.5809 289.876 34.489C290.03 35.1197 290.122 35.7641 290.151 36.4128C289.799 36.0615 289.36 35.809 288.88 35.6807C288.4 35.5524 287.894 35.5528 287.414 35.6818L286.613 35.8958L285.789 35.4198C285.37 35.1784 284.897 35.0479 284.414 35.0408C283.931 35.0337 283.455 35.1502 283.029 35.3791C282.604 35.608 282.245 35.9419 281.985 36.3489C281.725 36.756 281.573 37.2227 281.544 37.7048L281.207 43.3219C281.177 43.8107 281.238 44.2909 281.379 44.7428L280.998 44.7499H280.422C280.315 44.7499 280.208 44.748 280.102 44.7443C280.414 43.7384 280.318 42.6306 279.799 41.6743L277.12 36.7259C276.89 36.3012 276.555 35.9423 276.148 35.6834C275.74 35.4244 275.273 35.2739 274.791 35.2463C274.309 35.2186 273.827 35.3146 273.393 35.5252C272.958 35.7358 272.585 36.0541 272.308 36.4497L271.762 37.2288L271.295 37.311C271.247 36.7636 271.258 36.2126 271.329 35.6677C271.381 35.2639 271.451 34.8644 271.544 34.489C271.825 33.367 272.302 32.4221 272.758 31.6273L273.377 30.579C273.967 29.5633 274.335 28.7728 274.335 27.7499V23.4999C274.335 21.997 274.932 20.5557 275.995 19.493C277.057 18.4303 278.499 17.8333 280.002 17.8333ZM277.964 26.0188L276.8 26.5996C277.117 27.4453 277.61 28.2373 278.071 28.8663L278.36 29.2473L278.62 29.5661L278.735 29.6993L279.089 29.4995L279.555 29.2204C279.805 29.066 280.077 28.8918 280.357 28.7005C281.213 28.1168 282.093 27.4113 282.712 26.6789L279.431 25.8573C278.938 25.7343 278.418 25.7916 277.964 26.0188Z" fill="white"/>
</svg>
