<svg width="64" height="64" viewBox="0 0 64 64" fill="none" xmlns="http://www.w3.org/2000/svg">
<rect width="64" height="64" rx="21.3333" fill="white" fill-opacity="0.04"/>
<path fill-rule="evenodd" clip-rule="evenodd" d="M26.7089 36.6609C26.95 36.6747 27.1835 36.7499 27.3873 36.8793C27.5911 37.0087 27.7584 37.1881 27.8734 37.4004L30.5538 42.3488C30.78 42.7673 30.8854 43.2405 30.858 43.7154C30.8306 44.1904 30.6715 44.6483 30.3986 45.038C30.1257 45.4276 29.7497 45.7337 29.3127 45.9217C28.8757 46.1098 28.395 46.1726 27.9244 46.103L22.3569 45.2785C22.1181 45.243 21.8922 45.147 21.7009 44.9997C21.5095 44.8524 21.359 44.6586 21.2636 44.4367C21.1682 44.2149 21.1312 43.9723 21.1559 43.7321C21.1806 43.4919 21.2663 43.262 21.4049 43.0642L22.2875 41.8034L22.041 40.4094C22.0086 40.2261 22.0126 40.0383 22.0528 39.8566C22.093 39.6749 22.1686 39.5029 22.2753 39.3504C22.382 39.1979 22.5177 39.0679 22.6746 38.9679C22.8315 38.8679 23.0066 38.7998 23.1899 38.7675L24.5853 38.5224L25.4679 37.2615C25.6063 37.0638 25.793 36.9046 26.0102 36.7993C26.2274 36.6939 26.4679 36.6458 26.7089 36.6595V36.6609ZM35.7005 36.6269C35.8858 36.527 36.0911 36.4698 36.3014 36.4592C36.5116 36.4487 36.7216 36.4852 36.916 36.566L37.0803 36.6467L38.412 37.416L39.7805 37.049C40.1158 36.9592 40.4723 36.9955 40.7826 37.1511C41.0928 37.3068 41.3351 37.5709 41.4635 37.8934L41.5159 38.0506L41.8828 39.4191L43.2145 40.1884C43.4103 40.3013 43.5763 40.4595 43.6985 40.6497C43.8207 40.8399 43.8956 41.0566 43.917 41.2817C43.9383 41.5068 43.9055 41.7337 43.8213 41.9435C43.737 42.1533 43.6038 42.3398 43.4327 42.4876L43.2868 42.5981L38.5905 45.6978C38.2092 45.9495 37.7675 46.0947 37.3112 46.1184C36.8549 46.1421 36.4006 46.0433 35.9953 45.8323C35.59 45.6214 35.2485 45.3059 35.0061 44.9186C34.7637 44.5313 34.6293 44.0862 34.6168 43.6295L34.621 43.4056L34.9582 37.7885C34.9727 37.5477 35.0486 37.3146 35.1785 37.1113C35.3084 36.908 35.4881 36.7413 35.7005 36.6269ZM32.0016 17.8334C33.5045 17.8334 34.9458 18.4304 36.0085 19.4931C37.0712 20.5558 37.6683 21.9971 37.6683 23.5V24.9167C37.6683 26.6365 38.3794 28.1283 39.3201 29.6682L40.3628 31.3186C40.5044 31.5453 40.639 31.7649 40.7594 31.966C41.2128 32.7325 41.6491 33.581 41.8758 34.4891C42.0301 35.1199 42.1222 35.7642 42.1506 36.413C41.7986 36.0616 41.3604 35.8091 40.88 35.6808C40.3996 35.5525 39.8938 35.5529 39.4136 35.682L38.6132 35.8959L37.7887 35.4199C37.3703 35.1785 36.8973 35.0481 36.4144 35.0409C35.9315 35.0338 35.4547 35.1503 35.0295 35.3792C34.6042 35.6082 34.2446 35.942 33.9846 36.3491C33.7247 36.7561 33.5731 37.2229 33.5443 37.705L33.2072 43.322C33.1774 43.8108 33.2383 44.291 33.3786 44.743L32.9975 44.75H32.4223C32.3147 44.75 32.2079 44.7482 32.1022 44.7444C32.4138 43.7385 32.3175 42.6307 31.799 41.6745L29.1201 36.726C28.8901 36.3013 28.5554 35.9425 28.1478 35.6835C27.7401 35.4245 27.273 35.2741 26.7909 35.2464C26.3087 35.2187 25.8275 35.3147 25.3929 35.5254C24.9583 35.736 24.5847 36.0542 24.3077 36.4498L23.7623 37.229L23.2948 37.3111C23.247 36.7637 23.2584 36.2128 23.3288 35.6678C23.3812 35.264 23.4506 34.8645 23.5441 34.4891C23.8246 33.3671 24.302 32.4222 24.7582 31.6275L25.3773 30.5791C25.9666 29.5634 26.3349 28.7729 26.3349 27.75V23.5C26.3349 21.9971 26.9319 20.5558 27.9946 19.4931C29.0574 18.4304 30.4987 17.8334 32.0016 17.8334ZM29.9644 26.0189L28.7999 26.5997C29.1173 27.4455 29.6103 28.2374 30.0707 28.8664L30.3597 29.2475L30.6203 29.5662L30.7351 29.6994L31.0893 29.4996L31.5553 29.2205C31.8047 29.0661 32.0767 28.8919 32.3572 28.7006C33.2128 28.117 34.0926 27.4115 34.7117 26.679L31.4307 25.8574C30.9383 25.7344 30.4182 25.7917 29.9644 26.0189Z" fill="white"/>
</svg>
