<svg width="64" height="64" viewBox="0 0 64 64" fill="none" xmlns="http://www.w3.org/2000/svg">
<rect width="64" height="64" rx="21.3333" fill="white" fill-opacity="0.04"/>
<path d="M44.75 33.4167V43.9482C44.75 44.2336 44.6925 44.516 44.581 44.7787C44.4694 45.0414 44.3061 45.2789 44.1008 45.4771C43.8955 45.6753 43.6523 45.8301 43.3859 45.9322C43.1194 46.0344 42.8351 46.0819 42.5499 46.0718L42.3615 46.0562L32 44.7614V33.4167H44.75ZM29.1667 33.4167V44.4072L21.732 43.4779C21.0466 43.3922 20.4161 43.0592 19.9591 42.5413C19.502 42.0235 19.2498 41.3565 19.25 40.6658V33.4167H29.1667ZM42.3615 17.9439C42.6447 17.9085 42.932 17.9305 43.2065 18.0086C43.481 18.0867 43.7369 18.2193 43.959 18.3984C44.1811 18.5776 44.3649 18.7996 44.4993 19.0513C44.6337 19.303 44.7161 19.5792 44.7415 19.8635L44.75 20.0519V30.5834H32V19.2387L42.3615 17.9439ZM29.1667 19.5929V30.5834H19.25V23.3343C19.2498 22.6436 19.502 21.9766 19.9591 21.4588C20.4161 20.9409 21.0466 20.6079 21.732 20.5222L29.1667 19.5929Z" fill="white"/>
</svg>
