<svg width="24" height="24" viewBox="0 0 24 24" fill="none" xmlns="http://www.w3.org/2000/svg">
<path d="M2 6C2 5.73478 2.1317 5.48043 2.36612 5.29289C2.60054 5.10536 2.91848 5 3.25 5H20.75C21.0815 5 21.3995 5.10536 21.6339 5.29289C21.8683 5.48043 22 5.73478 22 6C22 6.26522 21.8683 6.51957 21.6339 6.70711C21.3995 6.89464 21.0815 7 20.75 7H3.25C2.91848 7 2.60054 6.89464 2.36612 6.70711C2.1317 6.51957 2 6.26522 2 6ZM2 12C2 11.7348 2.1317 11.4804 2.36612 11.2929C2.60054 11.1054 2.91848 11 3.25 11H20.75C21.0815 11 21.3995 11.1054 21.6339 11.2929C21.8683 11.4804 22 11.7348 22 12C22 12.2652 21.8683 12.5196 21.6339 12.7071C21.3995 12.8946 21.0815 13 20.75 13H3.25C2.91848 13 2.60054 12.8946 2.36612 12.7071C2.1317 12.5196 2 12.2652 2 12ZM3.25 17C2.91848 17 2.60054 17.1054 2.36612 17.2929C2.1317 17.4804 2 17.7348 2 18C2 18.2652 2.1317 18.5196 2.36612 18.7071C2.60054 18.8946 2.91848 19 3.25 19H20.75C21.0815 19 21.3995 18.8946 21.6339 18.7071C21.8683 18.5196 22 18.2652 22 18C22 17.7348 21.8683 17.4804 21.6339 17.2929C21.3995 17.1054 21.0815 17 20.75 17H3.25Z" fill="white"/>
</svg>
