<svg width="32" height="29" viewBox="0 0 32 29" fill="none" xmlns="http://www.w3.org/2000/svg">
<path d="M26.558 0.0111424C27.9172 -0.015417 29.2873 0.0157834 30.6479 0.00134383C31.0139 -0.00253829 31.565 0.00191207 31.8774 0.199711C32.0322 0.848498 31.9745 2.6712 31.9745 3.44327V8.9946L31.975 18.5815C31.9754 20.0517 32.0403 22.1416 31.9593 23.5657C31.7226 23.9071 30.7625 24.8089 30.4037 25.1659C29.4909 26.0749 28.5554 27.009 27.6407 27.9146C26.771 28.7753 26.8094 28.6489 25.6144 28.6323C25.6443 26.7656 25.6007 24.7554 25.6017 22.8731L25.5941 9.49469C24.9791 10.0243 24.2917 10.7407 23.7122 11.3196L20.8248 14.2115L12.3629 22.6681L8.41808 26.5961C7.77535 27.2348 7.12306 27.9094 6.4408 28.5022C5.85006 29.0154 4.89979 27.7328 4.48128 27.3157C3.74439 26.589 3.01161 25.8585 2.28301 25.1233C1.79774 24.6385 0.319128 23.231 0.0305255 22.8125C-0.0286531 19.8087 0.0180742 16.6773 0.00907906 13.6601C0.547084 14.2219 1.34334 14.9415 1.92609 15.5159C3.38013 16.9611 4.84392 18.3964 6.31733 19.8218C7.59531 18.4766 9.17277 16.9884 10.5053 15.6612L18.6678 7.53412L23.5328 2.67934C24.3816 1.83214 25.2499 0.977837 26.1111 0.141335C26.2228 0.0329201 26.4046 0.0261028 26.558 0.0111424Z" fill="#111111"/>
<path d="M0.780289 0.0138238L4.93023 0C5.15312 0.0013256 5.6576 0.00946865 5.8135 0.137957C6.54012 0.736703 7.30509 1.53552 7.97376 2.19453L13.0694 7.25213C12.6357 7.81598 12.0206 8.33368 11.5327 8.85701C10.8524 9.58656 10.025 10.2755 9.38321 11.0329C9.02804 10.64 8.4995 10.1438 8.11399 9.7604C7.59014 9.23035 7.0341 8.6977 6.50135 8.17366C6.51176 9.45637 6.5147 10.7391 6.5102 12.0218C6.51001 12.2841 6.52398 13.5015 6.4808 13.6885C6.25829 13.5596 4.71415 11.9898 4.42309 11.6924C2.98164 10.2197 1.45488 8.77633 0.0345428 7.29081C-0.0332049 6.00772 0.0359641 4.58459 0.0130501 3.28654C0.0268269 2.37737 -0.0115674 1.46167 0.034592 0.553913C0.0610093 0.0332353 0.375554 0.0288788 0.780289 0.0138238Z" fill="#111111"/>
</svg>
