<svg width="113" height="22" viewBox="0 0 113 22" fill="none" xmlns="http://www.w3.org/2000/svg">
<path d="M20.3949 0.00884557C21.4386 -0.0115495 22.4907 0.0124094 23.5356 0.00132119C23.7383 -0.000829109 24.1786 0.000158535 24.4082 0.000876034C24.489 0.00112845 24.5542 0.0661191 24.5542 0.146914C24.5542 0.625322 24.5542 2.14723 24.5542 2.64439V6.90729L24.5546 14.2692C24.555 15.3981 24.5426 18.0965 24.5426 18.0965C24.5426 18.0965 23.6235 19.0512 23.348 19.3253C22.6471 20.0233 21.9287 20.7406 21.2263 21.4361C20.5585 22.097 20.5879 22 19.6703 21.9872C19.6932 20.5538 19.6598 19.0101 19.6605 17.5647L19.6547 7.29131C19.6547 7.29131 18.6546 8.2481 18.2096 8.69268L15.9923 10.9134L9.4944 17.4072L6.46513 20.4236C5.97158 20.914 5.47068 21.4321 4.94677 21.8873C4.49313 22.2813 3.76342 21.2965 3.44204 20.9762C2.87618 20.4181 2.31348 19.8572 1.75397 19.2926C1.38134 18.9203 0.0242813 17.5181 0.0242813 17.5181L0.0078125 10.49C0.0078125 10.49 1.0324 11.4739 1.47989 11.9151C2.59646 13.0248 3.72052 14.127 4.85196 15.2215C5.83332 14.1886 7.04466 13.0457 8.06791 12.0266L14.336 5.78578L18.0718 2.05777C18.7236 1.4072 19.3904 0.751176 20.0517 0.108822C20.1375 0.0255688 20.2771 0.0203337 20.3949 0.00884557Z" fill="white"/>
<path d="M0.598529 0.0106153L3.78529 0C3.88324 0.000582542 4.00321 0.000498333 4.08793 0.000319723C4.15703 0.000174014 4.2232 0.0236326 4.27616 0.0680303C4.58404 0.326135 5.68302 1.25212 6.12244 1.68519L10.0354 5.56895L8.85534 6.80135L7.20476 8.47225C7.20476 8.47225 6.52616 7.78951 6.23012 7.49507C5.82785 7.08804 5.40086 6.67901 4.99176 6.2766C4.99976 7.2616 5.00202 8.24663 4.99856 9.23163C4.99842 9.433 4.97598 10.5115 4.97598 10.5115C4.97598 10.5115 3.61937 9.20702 3.39586 8.97864C2.28896 7.84775 0.0258664 5.59865 0.0258664 5.59865C0.0258664 5.59865 0.0269578 3.52053 0.00936207 2.52376C0.0199413 1.8256 -0.00954185 1.12242 0.0259042 0.425353C0.0461902 0.0255216 0.287731 0.0221762 0.598529 0.0106153Z" fill="white"/>
<g clip-path="url(#clip0_1815_5543)">
<path d="M45.2922 5.96377C45.3229 5.91902 45.3742 5.89361 45.4286 5.8938C45.9766 5.89572 46.5505 5.9044 47.099 5.89448C47.1952 5.89274 47.2746 5.96978 47.275 6.06598L47.3126 15.9311C47.313 16.0267 47.235 16.1042 47.1393 16.1033C46.512 16.0976 45.8847 16.0972 45.2574 16.1019C45.1646 16.1026 45.088 16.0297 45.0848 15.937C45.0262 14.2362 45.0667 12.3474 45.0646 10.6047C45.0643 10.4323 44.8398 10.3701 44.7507 10.5176C43.8643 11.9856 43.007 13.482 42.1152 14.9449C42.0845 14.9952 42.0296 15.0261 41.9706 15.0273C40.8652 15.0485 41.0941 15.164 40.4812 14.1575L39.4242 12.4171L38.5016 10.9004C38.4696 10.8477 38.432 10.7873 38.3918 10.7228C38.2961 10.5693 38.0235 10.643 38.0237 10.8239L38.0288 15.9312C38.0289 16.0269 37.9508 16.1041 37.8552 16.1035C37.2468 16.1002 36.5649 16.1169 35.9692 16.1003C35.8772 16.0977 35.8047 16.022 35.8047 15.93V6.06753C35.8047 5.97289 35.8813 5.89615 35.976 5.89604L37.6635 5.89419C37.7237 5.89413 37.7796 5.92563 37.8106 5.97719L40.3229 10.1474C40.6019 10.6109 41.0855 11.4675 41.4297 11.9991C41.4979 12.1045 41.6511 12.0973 41.7135 11.9884C42.4425 10.7172 43.2324 9.42643 43.9784 8.16491L44.8282 6.72871C44.9516 6.52021 45.1427 6.18119 45.2922 5.96377Z" fill="#FEFEFE"/>
<path d="M56.8877 5.72852H57.7426C57.9072 5.76389 58.0637 5.76836 58.228 5.79298C61.2082 6.23963 63.0756 9.03316 62.4778 12.1338C62.2195 13.4362 61.4821 14.577 60.4277 15.3052C59.3379 16.0666 58.6732 16.1028 57.4616 16.2707H57.1404C56.9908 16.232 56.5309 16.1969 56.3373 16.1672C55.5958 16.0513 54.886 15.7712 54.2542 15.3453C53.2061 14.637 52.4614 13.5493 52.1862 12.2674C51.8822 10.8439 52.067 9.35062 52.8269 8.11758C53.6333 6.80898 54.9399 6.01698 56.3911 5.79634C56.5595 5.77074 56.7197 5.76734 56.8877 5.72852ZM57.6837 14.2053C59.3565 13.9917 60.553 12.3926 60.3631 10.624C60.1733 8.85538 58.6682 7.57979 56.9925 7.76728C55.2992 7.95674 54.0762 9.56688 54.2681 11.354C54.4599 13.1412 55.9932 14.4212 57.6837 14.2053Z" fill="#FEFEFE"/>
<path d="M67.3287 6.06971C67.329 5.97383 67.4075 5.89658 67.5034 5.89777C67.828 5.90179 68.1577 5.90178 68.4802 5.89805C70.999 5.86891 73.5344 5.93794 76.0526 5.89514C76.1485 5.89351 76.2273 5.97071 76.2273 6.06664L76.2286 7.654C76.2286 7.75121 76.148 7.82901 76.0509 7.8262C75.1305 7.79964 74.0779 7.82037 73.1487 7.82667C73.0523 7.82732 72.9753 7.90707 72.9778 8.0035C73.0177 9.53347 72.9779 11.3248 72.9776 12.8541L72.9802 15.9319C72.9802 16.0272 72.9026 16.1043 72.8073 16.1037C72.1311 16.0991 71.4549 16.1 70.7786 16.1063C70.6848 16.1072 70.6075 16.0326 70.6058 15.9388C70.5893 15.0516 70.6049 14.1112 70.6049 13.2274V7.99636C70.6049 7.90158 70.528 7.82478 70.4332 7.82487L67.4989 7.82786C67.4057 7.82796 67.3294 7.75354 67.3279 7.6603C67.3198 7.14008 67.3273 6.59276 67.3287 6.06971Z" fill="#FEFEFE"/>
<path d="M80.9854 6.06653C80.9879 5.97344 81.0645 5.89962 81.1576 5.90003C81.8314 5.90303 82.5053 5.90089 83.1793 5.89359C83.2748 5.89256 83.3529 5.96967 83.3529 6.0652L83.3514 15.9324C83.3514 16.0289 83.2718 16.1063 83.1753 16.1044C82.5111 16.0909 81.8207 16.1003 81.1545 16.1042C81.0619 16.1047 80.9856 16.0315 80.9832 15.939C80.9726 15.5387 80.9736 15.1123 80.9817 14.7192C81.041 11.8522 80.9091 8.93153 80.9854 6.06653Z" fill="#FEFEFE"/>
<path d="M92.9216 5.72852H93.7752C94.1088 5.80265 94.3949 5.80023 94.7919 5.90042C96.0411 6.2074 97.1309 7.01025 97.8364 8.14301C98.5472 9.31186 98.7925 10.7304 98.5189 12.0896C98.2431 13.4705 97.5104 14.5823 96.3926 15.3502C95.7715 15.7738 95.0723 16.0529 94.3416 16.169C94.0573 16.2133 93.7712 16.2267 93.4877 16.2707H93.202C92.9264 16.2238 92.6412 16.2099 92.362 16.1658C91.635 16.0493 90.9386 15.7758 90.3158 15.3623C89.2572 14.6619 88.5047 13.5456 88.2241 12.2588C87.5509 9.08578 89.3994 6.24805 92.4376 5.7951C92.6013 5.77072 92.7593 5.76692 92.9216 5.72852ZM93.7106 14.207C95.3847 13.9973 96.5843 12.3969 96.3949 10.6254C96.2057 8.85388 94.6987 7.5768 93.0227 7.76735C91.3337 7.95937 90.1148 9.56781 90.3054 11.3529C90.4962 13.138 92.0236 14.4183 93.7106 14.207Z" fill="#FEFEFE"/>
<path d="M110.388 6.06681C110.389 5.97235 110.465 5.89594 110.56 5.89589L112.556 5.89463C112.649 5.89458 112.724 5.96732 112.727 6.05946C112.737 6.51297 112.725 7.03389 112.725 7.47414L112.726 10.4548C112.726 10.9144 112.749 15.3145 112.702 16.0131C112.699 16.0723 112.655 16.1037 112.595 16.1019C112.044 16.0859 111.434 16.1004 110.877 16.0998C110.833 16.0997 110.79 16.0826 110.759 16.0505C110.577 15.8593 110.31 15.5178 110.159 15.3333L109.005 13.925C108.034 12.74 107.012 11.5307 106.048 10.3304C105.944 10.1998 105.725 10.2807 105.727 10.4481C105.733 11.0247 105.715 11.7005 105.714 12.199L105.716 15.9308C105.716 16.026 105.638 16.103 105.543 16.1024C104.875 16.0983 104.207 16.0986 103.539 16.1032C103.451 16.1038 103.376 16.0367 103.371 15.9482C103.35 15.5569 103.364 14.9879 103.364 14.6375L103.365 11.9929L103.365 8.17787C103.365 7.49654 103.35 6.74754 103.374 6.06034C103.377 5.96858 103.453 5.89638 103.544 5.89648L105.249 5.89827C105.294 5.89832 105.338 5.91604 105.369 5.94904C105.535 6.12728 105.768 6.42707 105.911 6.60246L106.946 7.86968L110.074 11.6953C110.177 11.8212 110.382 11.7465 110.38 11.5839C110.358 9.77126 110.381 7.87483 110.388 6.06681Z" fill="#FEFEFE"/>
</g>
<defs>
<clipPath id="clip0_1815_5543">
<rect width="76.9287" height="10.5422" fill="white" transform="translate(35.8047 5.72852)"/>
</clipPath>
</defs>
</svg>
