<svg width="161" height="52" viewBox="0 0 161 52" fill="none" xmlns="http://www.w3.org/2000/svg">
<rect width="160.733" height="52" rx="18" fill="white" fill-opacity="0.02"/>
<path d="M44.3949 15.0091C45.4386 14.9887 46.4907 15.0127 47.5356 15.0016C47.7383 14.9994 48.1786 15.0004 48.4082 15.0011C48.489 15.0014 48.5542 15.0664 48.5542 15.1472C48.5542 15.6256 48.5542 17.1475 48.5542 17.6446V21.9075L48.5546 29.2694C48.555 30.3983 48.5426 33.0968 48.5426 33.0968C48.5426 33.0968 47.6235 34.0515 47.348 34.3256C46.6471 35.0236 45.9287 35.7409 45.2263 36.4363C44.5585 37.0973 44.5879 37.0002 43.6703 36.9875C43.6932 35.554 43.6598 34.0104 43.6605 32.5649L43.6547 22.2916C43.6547 22.2916 42.6546 23.2483 42.2096 23.6929L39.9923 25.9136L33.4944 32.4075L30.4651 35.4238C29.9716 35.9143 29.4707 36.4323 28.9468 36.8875C28.4931 37.2816 27.7634 36.2967 27.442 35.9764C26.8762 35.4184 26.3135 34.8574 25.754 34.2929C25.3813 33.9206 24.0243 32.5184 24.0243 32.5184L24.0078 25.4902C24.0078 25.4902 25.0324 26.4742 25.4799 26.9153C26.5965 28.025 27.7205 29.1272 28.852 30.2218C29.8333 29.1888 31.0447 28.046 32.0679 27.0269L38.336 20.786L42.0718 17.058C42.7236 16.4074 43.3904 15.7514 44.0517 15.1091C44.1375 15.0258 44.2771 15.0206 44.3949 15.0091Z" fill="white"/>
<path d="M24.5985 15.0109L27.7853 15.0002C27.8832 15.0008 28.0032 15.0007 28.0879 15.0006C28.157 15.0004 28.2232 15.0239 28.2762 15.0683C28.584 15.3264 29.683 16.2524 30.1224 16.6854L34.0354 20.5692L32.8553 21.8016L31.2048 23.4725C31.2048 23.4725 30.5262 22.7898 30.2301 22.4953C29.8279 22.0883 29.4009 21.6793 28.9918 21.2768C28.9998 22.2618 29.002 23.2469 28.9986 24.2319C28.9984 24.4332 28.976 25.5117 28.976 25.5117C28.976 25.5117 27.6194 24.2073 27.3959 23.9789C26.289 22.848 24.0259 20.5989 24.0259 20.5989C24.0259 20.5989 24.027 18.5208 24.0094 17.524C24.0199 16.8258 23.9905 16.1227 24.0259 15.4256C24.0462 15.0258 24.2877 15.0224 24.5985 15.0109Z" fill="white"/>
<g clip-path="url(#clip0_2585_8201)">
<path d="M69.2922 20.9646C69.3229 20.9199 69.3742 20.8945 69.4286 20.8947C69.9766 20.8966 70.5505 20.9053 71.099 20.8953C71.1952 20.8936 71.2746 20.9706 71.275 21.0668L71.3126 30.9319C71.313 31.0276 71.235 31.1051 71.1393 31.1042C70.512 31.0985 69.8847 31.098 69.2574 31.1028C69.1646 31.1035 69.088 31.0305 69.0848 30.9379C69.0262 29.237 69.0667 27.3482 69.0646 25.6056C69.0643 25.4332 68.8398 25.3709 68.7507 25.5185C67.8643 26.9865 67.007 28.4829 66.1152 29.9457C66.0845 29.9961 66.0296 30.027 65.9706 30.0281C64.8652 30.0494 65.0941 30.1649 64.4812 29.1583L63.4242 27.418L62.5016 25.9013C62.4696 25.8486 62.432 25.7882 62.3918 25.7237C62.2961 25.5702 62.0235 25.6439 62.0237 25.8247L62.0288 30.9321C62.0289 31.0277 61.9508 31.1049 61.8552 31.1044C61.2468 31.1011 60.5649 31.1178 59.9692 31.1011C59.8772 31.0985 59.8047 31.0228 59.8047 30.9308V21.0684C59.8047 20.9737 59.8813 20.897 59.976 20.8969L61.6635 20.895C61.7237 20.895 61.7796 20.9265 61.8106 20.978L64.3229 25.1483C64.6019 25.6118 65.0855 26.4684 65.4297 27C65.4979 27.1053 65.6511 27.0981 65.7135 26.9893C66.4425 25.718 67.2324 24.4273 67.9784 23.1658L68.8282 21.7296C68.9516 21.5211 69.1427 21.182 69.2922 20.9646Z" fill="#FEFEFE"/>
<path d="M80.8877 20.729H81.7426C81.9072 20.7644 82.0637 20.7688 82.228 20.7935C85.2082 21.2401 87.0756 24.0336 86.4778 27.1342C86.2195 28.4367 85.4821 29.5775 84.4277 30.3057C83.3379 31.0671 82.6732 31.1032 81.4616 31.2712H81.1404C80.9908 31.2325 80.5309 31.1974 80.3373 31.1677C79.5958 31.0518 78.886 30.7717 78.2542 30.3458C77.2061 29.6375 76.4614 28.5498 76.1862 27.2679C75.8822 25.8444 76.067 24.3511 76.8269 23.1181C77.6333 21.8095 78.9399 21.0175 80.3911 20.7968C80.5595 20.7712 80.7197 20.7678 80.8877 20.729ZM81.6837 29.2058C83.3565 28.9922 84.553 27.3931 84.3631 25.6245C84.1733 23.8559 82.6682 22.5803 80.9925 22.7678C79.2992 22.9572 78.0762 24.5674 78.2681 26.3545C78.4599 28.1416 79.9932 29.4216 81.6837 29.2058Z" fill="#FEFEFE"/>
<path d="M91.3248 21.0704C91.3251 20.9746 91.4036 20.8973 91.4995 20.8985C91.8241 20.9025 92.1538 20.9025 92.4763 20.8988C94.9951 20.8696 97.5305 20.9387 100.049 20.8959C100.145 20.8942 100.223 20.9714 100.223 21.0674L100.225 22.6547C100.225 22.7519 100.144 22.8297 100.047 22.8269C99.1266 22.8004 98.074 22.8211 97.1448 22.8274C97.0484 22.8281 96.9714 22.9078 96.9739 23.0042C97.0138 24.5342 96.974 26.3255 96.9737 27.8548L96.9763 30.9326C96.9763 31.028 96.8987 31.105 96.8034 31.1044C96.1272 31.0998 95.451 31.1007 94.7747 31.107C94.6809 31.1079 94.6036 31.0333 94.6019 30.9395C94.5854 30.0524 94.601 29.1119 94.601 28.2282V22.9971C94.601 22.9023 94.5241 22.8255 94.4293 22.8256L91.495 22.8286C91.4018 22.8287 91.3255 22.7543 91.324 22.661C91.3159 22.1408 91.3234 21.5935 91.3248 21.0704Z" fill="#FEFEFE"/>
<path d="M104.985 21.0665C104.988 20.9734 105.064 20.8996 105.158 20.9C105.831 20.903 106.505 20.9009 107.179 20.8936C107.275 20.8926 107.353 20.9697 107.353 21.0652L107.351 30.9324C107.351 31.0289 107.272 31.1063 107.175 31.1044C106.511 31.0909 105.821 31.1003 105.154 31.1042C105.062 31.1047 104.986 31.0315 104.983 30.939C104.973 30.5387 104.974 30.1123 104.982 29.7192C105.041 26.8522 104.909 23.9315 104.985 21.0665Z" fill="#FEFEFE"/>
<path d="M116.922 20.729H117.775C118.109 20.8031 118.395 20.8007 118.792 20.9009C120.041 21.2079 121.131 22.0107 121.836 23.1435C122.547 24.3124 122.792 25.7309 122.519 27.0901C122.243 28.471 121.51 29.5828 120.393 30.3507C119.772 30.7743 119.072 31.0533 118.342 31.1695C118.057 31.2138 117.771 31.2272 117.488 31.2712H117.202C116.926 31.2242 116.641 31.2103 116.362 31.1663C115.635 31.0498 114.939 30.7763 114.316 30.3628C113.257 29.6624 112.505 28.5461 112.224 27.2592C111.551 24.0863 113.399 21.2485 116.438 20.7956C116.601 20.7712 116.759 20.7674 116.922 20.729ZM117.711 29.2075C119.385 28.9977 120.584 27.3973 120.395 25.6259C120.206 23.8544 118.699 22.5773 117.023 22.7678C115.334 22.9599 114.115 24.5683 114.305 26.3534C114.496 28.1385 116.024 29.4188 117.711 29.2075Z" fill="#FEFEFE"/>
<path d="M134.388 21.0672C134.389 20.9727 134.465 20.8963 134.56 20.8963L136.556 20.895C136.649 20.8949 136.724 20.9677 136.727 21.0598C136.737 21.5133 136.725 22.0343 136.725 22.4745L136.726 25.4551C136.726 25.9148 136.749 30.3149 136.702 31.0134C136.699 31.0726 136.655 31.104 136.595 31.1023C136.044 31.0863 135.434 31.1008 134.877 31.1001C134.833 31.1001 134.79 31.0829 134.759 31.0508C134.577 30.8596 134.31 30.5182 134.159 30.3337L133.005 28.9254C132.034 27.7404 131.012 26.531 130.048 25.3307C129.944 25.2002 129.725 25.2811 129.727 25.4485C129.733 26.0251 129.715 26.7008 129.714 27.1994L129.716 30.9311C129.716 31.0263 129.638 31.1033 129.543 31.1027C128.875 31.0987 128.207 31.099 127.539 31.1035C127.451 31.1042 127.376 31.0371 127.371 30.9486C127.35 30.5573 127.364 29.9883 127.364 29.6379L127.365 26.9933L127.365 23.1782C127.365 22.4969 127.35 21.7479 127.374 21.0607C127.377 20.9689 127.453 20.8967 127.544 20.8968L129.249 20.8986C129.294 20.8987 129.338 20.9164 129.369 20.9494C129.535 21.1276 129.768 21.4274 129.911 21.6028L130.946 22.8701L134.074 26.6956C134.177 26.8215 134.382 26.7469 134.38 26.5842C134.358 24.7716 134.381 22.8752 134.388 21.0672Z" fill="#FEFEFE"/>
</g>
<defs>
<clipPath id="clip0_2585_8201">
<rect width="76.9287" height="10.5422" fill="white" transform="translate(59.8047 20.729)"/>
</clipPath>
</defs>
</svg>
