<svg width="113" height="22" viewBox="0 0 113 22" fill="none" xmlns="http://www.w3.org/2000/svg">
<path d="M20.3949 0.00896764C21.4386 -0.0114274 22.4907 0.0125315 23.5356 0.00144326C23.7383 -0.000707039 24.1786 0.000280605 24.4082 0.000998104C24.489 0.00125052 24.5542 0.0662411 24.5542 0.147036C24.5542 0.625444 24.5542 2.14735 24.5542 2.64451V6.90741L24.5546 14.2693C24.555 15.3982 24.5426 18.0966 24.5426 18.0966C24.5426 18.0966 23.6235 19.0513 23.348 19.3254C22.6471 20.0235 21.9287 20.7407 21.2263 21.4362C20.5585 22.0971 20.5879 22.0001 19.6703 21.9874C19.6932 20.5539 19.6598 19.0102 19.6605 17.5648L19.6547 7.29143C19.6547 7.29143 18.6546 8.24822 18.2096 8.69281L15.9923 10.9135L9.4944 17.4074L6.46513 20.4237C5.97158 20.9142 5.47068 21.4322 4.94677 21.8874C4.49313 22.2815 3.76342 21.2966 3.44204 20.9763C2.87618 20.4183 2.31348 19.8573 1.75397 19.2927C1.38134 18.9205 0.0242813 17.5182 0.0242813 17.5182L0.0078125 10.4901C0.0078125 10.4901 1.0324 11.4741 1.47989 11.9152C2.59646 13.0249 3.72052 14.1271 4.85196 15.2217C5.83332 14.1887 7.04466 13.0459 8.06791 12.0268L14.336 5.7859L18.0718 2.05789C18.7236 1.40732 19.3904 0.751298 20.0517 0.108944C20.1375 0.0256909 20.2771 0.0204558 20.3949 0.00896764Z" fill="white"/>
<path d="M0.598529 0.0107374L3.78529 0.00012207C3.88324 0.000704612 4.00321 0.000620403 4.08793 0.000441793C4.15703 0.000296084 4.2232 0.0237547 4.27616 0.0681523C4.58404 0.326257 5.68302 1.25225 6.12244 1.68532L10.0354 5.56907L8.85534 6.80147L7.20476 8.47237C7.20476 8.47237 6.52616 7.78963 6.23012 7.49519C5.82785 7.08816 5.40086 6.67913 4.99176 6.27672C4.99976 7.26172 5.00202 8.24676 4.99856 9.23176C4.99842 9.43312 4.97598 10.5116 4.97598 10.5116C4.97598 10.5116 3.61937 9.20714 3.39586 8.97876C2.28896 7.84787 0.0258664 5.59877 0.0258664 5.59877C0.0258664 5.59877 0.0269578 3.52066 0.00936207 2.52388C0.0199413 1.82572 -0.00954185 1.12254 0.0259042 0.425475C0.0461902 0.0256436 0.287731 0.0222983 0.598529 0.0107374Z" fill="white"/>
<g clip-path="url(#clip0_2424_9845)">
<path d="M45.2922 5.96451C45.3229 5.91975 45.3742 5.89434 45.4286 5.89453C45.9766 5.89645 46.5505 5.90513 47.099 5.89522C47.1952 5.89348 47.2746 5.97051 47.275 6.06672L47.3126 15.9318C47.313 16.0275 47.235 16.1049 47.1393 16.1041C46.512 16.0984 45.8847 16.0979 45.2574 16.1027C45.1646 16.1034 45.088 16.0304 45.0848 15.9377C45.0262 14.2369 45.0667 12.3481 45.0646 10.6055C45.0643 10.4331 44.8398 10.3708 44.7507 10.5184C43.8643 11.9863 43.007 13.4828 42.1152 14.9456C42.0845 14.9959 42.0296 15.0269 41.9706 15.028C40.8652 15.0492 41.0941 15.1647 40.4812 14.1582L39.4242 12.4179L38.5016 10.9012C38.4696 10.8485 38.432 10.788 38.3918 10.7235C38.2961 10.5701 38.0235 10.6438 38.0237 10.8246L38.0288 15.9319C38.0289 16.0276 37.9508 16.1048 37.8552 16.1043C37.2468 16.1009 36.5649 16.1177 35.9692 16.101C35.8772 16.0984 35.8047 16.0227 35.8047 15.9307V6.06826C35.8047 5.97363 35.8813 5.89688 35.976 5.89678L37.6635 5.89493C37.7237 5.89486 37.7796 5.92636 37.8106 5.97792L40.3229 10.1482C40.6019 10.6117 41.0855 11.4683 41.4297 11.9999C41.4979 12.1052 41.6511 12.098 41.7135 11.9891C42.4425 10.7179 43.2324 9.42716 43.9784 8.16565L44.8282 6.72944C44.9516 6.52094 45.1427 6.18192 45.2922 5.96451Z" fill="#FEFEFE"/>
<path d="M56.8877 5.72888H57.7426C57.9072 5.76426 58.0637 5.76873 58.228 5.79334C61.2082 6.24 63.0756 9.03352 62.4778 12.1341C62.2195 13.4366 61.4821 14.5774 60.4277 15.3056C59.3379 16.067 58.6732 16.1031 57.4616 16.271H57.1404C56.9908 16.2324 56.5309 16.1973 56.3373 16.1675C55.5958 16.0516 54.886 15.7716 54.2542 15.3456C53.2061 14.6373 52.4614 13.5497 52.1862 12.2678C51.8822 10.8443 52.067 9.35098 52.8269 8.11794C53.6333 6.80935 54.9399 6.01734 56.3911 5.79671C56.5595 5.77111 56.7197 5.76771 56.8877 5.72888ZM57.6837 14.2057C59.3565 13.9921 60.553 12.3929 60.3631 10.6243C60.1733 8.85574 58.6682 7.58016 56.9925 7.76765C55.2992 7.95711 54.0762 9.56725 54.2681 11.3544C54.4599 13.1415 55.9932 14.4215 57.6837 14.2057Z" fill="#FEFEFE"/>
<path d="M67.3248 6.07032C67.3251 5.97444 67.4036 5.89719 67.4995 5.89838C67.8241 5.9024 68.1538 5.90239 68.4763 5.89866C70.9951 5.86952 73.5305 5.93855 76.0487 5.89575C76.1446 5.89412 76.2234 5.97132 76.2234 6.06725L76.2247 7.65461C76.2247 7.75182 76.1441 7.82962 76.0469 7.82681C75.1266 7.80025 74.074 7.82098 73.1448 7.82728C73.0484 7.82793 72.9714 7.90768 72.9739 8.00411C73.0138 9.53408 72.974 11.3254 72.9737 12.8547L72.9763 15.9325C72.9763 16.0278 72.8987 16.1049 72.8034 16.1043C72.1272 16.0997 71.451 16.1006 70.7747 16.1069C70.6809 16.1078 70.6036 16.0332 70.6019 15.9394C70.5854 15.0522 70.601 14.1118 70.601 13.228V7.99697C70.601 7.90219 70.5241 7.82539 70.4293 7.82548L67.495 7.82847C67.4018 7.82857 67.3255 7.75415 67.324 7.66091C67.3159 7.14069 67.3234 6.59337 67.3248 6.07032Z" fill="#FEFEFE"/>
<path d="M80.9854 6.0664C80.9879 5.97332 81.0645 5.8995 81.1576 5.89991C81.8314 5.90291 82.5053 5.90076 83.1793 5.89347C83.2748 5.89244 83.3529 5.96955 83.3529 6.06508L83.3514 15.9323C83.3514 16.0288 83.2718 16.1062 83.1753 16.1043C82.5111 16.0908 81.8207 16.1002 81.1545 16.1041C81.0619 16.1046 80.9856 16.0314 80.9832 15.9388C80.9726 15.5386 80.9736 15.1122 80.9817 14.719C81.041 11.852 80.9091 8.93141 80.9854 6.0664Z" fill="#FEFEFE"/>
<path d="M92.9216 5.72888H93.7752C94.1088 5.80302 94.3949 5.80059 94.7919 5.90079C96.0411 6.20777 97.1309 7.01062 97.8364 8.14337C98.5472 9.31223 98.7925 10.7308 98.5189 12.09C98.2431 13.4708 97.5104 14.5827 96.3926 15.3506C95.7715 15.7741 95.0723 16.0532 94.3416 16.1694C94.0573 16.2136 93.7712 16.2271 93.4877 16.271H93.202C92.9264 16.2241 92.6412 16.2102 92.362 16.1661C91.635 16.0497 90.9386 15.7762 90.3158 15.3627C89.2572 14.6622 88.5047 13.5459 88.2241 12.2591C87.5509 9.08614 89.3994 6.24842 92.4376 5.79547C92.6013 5.77108 92.7593 5.76729 92.9216 5.72888ZM93.7106 14.2073C95.3847 13.9976 96.5843 12.3972 96.3949 10.6257C96.2057 8.85424 94.6987 7.57716 93.0227 7.76772C91.3337 7.95973 90.1148 9.56818 90.3054 11.3532C90.4962 13.1383 92.0236 14.4187 93.7106 14.2073Z" fill="#FEFEFE"/>
<path d="M110.388 6.06705C110.389 5.97259 110.465 5.89619 110.56 5.89613L112.556 5.89488C112.649 5.89482 112.724 5.96756 112.727 6.0597C112.737 6.51321 112.725 7.03413 112.725 7.47438L112.726 10.455C112.726 10.9147 112.749 15.3148 112.702 16.0133C112.699 16.0725 112.655 16.1039 112.595 16.1022C112.044 16.0862 111.434 16.1006 110.877 16.1C110.833 16.1 110.79 16.0828 110.759 16.0507C110.577 15.8595 110.31 15.5181 110.159 15.3336L109.005 13.9252C108.034 12.7403 107.012 11.5309 106.048 10.3306C105.944 10.2001 105.725 10.281 105.727 10.4484C105.733 11.025 105.715 11.7007 105.714 12.1993L105.716 15.931C105.716 16.0262 105.638 16.1032 105.543 16.1026C104.875 16.0986 104.207 16.0988 103.539 16.1034C103.451 16.104 103.376 16.037 103.371 15.9484C103.35 15.5571 103.364 14.9882 103.364 14.6378L103.365 11.9932L103.365 8.17812C103.365 7.49679 103.35 6.74779 103.374 6.06058C103.377 5.96882 103.453 5.89663 103.544 5.89672L105.249 5.89851C105.294 5.89856 105.338 5.91628 105.369 5.94928C105.535 6.12753 105.768 6.42731 105.911 6.6027L106.946 7.86993L110.074 11.6955C110.177 11.8214 110.382 11.7467 110.38 11.5841C110.358 9.77151 110.381 7.87508 110.388 6.06705Z" fill="#FEFEFE"/>
</g>
<defs>
<clipPath id="clip0_2424_9845">
<rect width="76.9287" height="10.5422" fill="white" transform="translate(35.8047 5.72888)"/>
</clipPath>
</defs>
</svg>
