<svg width="24" height="24" viewBox="0 0 24 24" fill="none" xmlns="http://www.w3.org/2000/svg">
<path d="M12.623 2.62402C12.623 2.45826 12.5572 2.29929 12.44 2.18208C12.3228 2.06487 12.1638 1.99902 11.998 1.99902C11.8323 1.99902 11.6733 2.06487 11.5561 2.18208C11.4389 2.29929 11.373 2.45826 11.373 2.62402V3.49902H7.62305C7.05946 3.49902 6.51896 3.72291 6.12044 4.12142C5.72193 4.51994 5.49805 5.06044 5.49805 5.62402V9.87402C5.49805 10.4376 5.72193 10.9781 6.12044 11.3766C6.51896 11.7751 7.05946 11.999 7.62305 11.999H16.373C16.9366 11.999 17.4771 11.7751 17.8756 11.3766C18.2742 10.9781 18.498 10.4376 18.498 9.87402V5.62402C18.498 5.06044 18.2742 4.51994 17.8756 4.12142C17.4771 3.72291 16.9366 3.49902 16.373 3.49902H12.623V2.62402ZM9.49805 8.99902C9.16653 8.99902 8.84858 8.86733 8.61416 8.63291C8.37974 8.39849 8.24805 8.08054 8.24805 7.74902C8.24805 7.4175 8.37974 7.09956 8.61416 6.86514C8.84858 6.63072 9.16653 6.49902 9.49805 6.49902C9.82957 6.49902 10.1475 6.63072 10.3819 6.86514C10.6164 7.09956 10.748 7.4175 10.748 7.74902C10.748 8.08054 10.6164 8.39849 10.3819 8.63291C10.1475 8.86733 9.82957 8.99902 9.49805 8.99902ZM15.748 7.74902C15.748 8.08054 15.6164 8.39849 15.3819 8.63291C15.1475 8.86733 14.8296 8.99902 14.498 8.99902C14.1665 8.99902 13.8486 8.86733 13.6142 8.63291C13.3797 8.39849 13.248 8.08054 13.248 7.74902C13.248 7.4175 13.3797 7.09956 13.6142 6.86514C13.8486 6.63072 14.1665 6.49902 14.498 6.49902C14.8296 6.49902 15.1475 6.63072 15.3819 6.86514C15.6164 7.09956 15.748 7.4175 15.748 7.74902ZM3.99805 16.124C3.99805 15.5604 4.22193 15.0199 4.62044 14.6214C5.01896 14.2229 5.55946 13.999 6.12305 13.999H17.873C18.4366 13.999 18.9771 14.2229 19.3756 14.6214C19.7742 15.0199 19.998 15.5604 19.998 16.124V16.649C19.998 18.226 19.2305 19.593 17.83 20.5415C16.448 21.4775 14.468 21.999 11.998 21.999C9.52805 21.999 7.54805 21.4775 6.16605 20.5415C4.76555 19.593 3.99805 18.226 3.99805 16.649V16.124Z" fill="#989898"/>
</svg>
