<svg width="16" height="20" viewBox="0 0 16 20" fill="none" xmlns="http://www.w3.org/2000/svg">
<path d="M8.625 0.625C8.625 0.45924 8.55915 0.300269 8.44194 0.183058C8.32473 0.065848 8.16576 0 8 0C7.83424 0 7.67527 0.065848 7.55806 0.183058C7.44085 0.300269 7.375 0.45924 7.375 0.625V1.5H3.625C3.06141 1.5 2.52091 1.72388 2.1224 2.1224C1.72388 2.52091 1.5 3.06141 1.5 3.625V7.875C1.5 8.43859 1.72388 8.97909 2.1224 9.3776C2.52091 9.77612 3.06141 10 3.625 10H12.375C12.9386 10 13.4791 9.77612 13.8776 9.3776C14.2761 8.97909 14.5 8.43859 14.5 7.875V3.625C14.5 3.06141 14.2761 2.52091 13.8776 2.1224C13.4791 1.72388 12.9386 1.5 12.375 1.5H8.625V0.625ZM5.5 7C5.16848 7 4.85054 6.8683 4.61612 6.63388C4.3817 6.39946 4.25 6.08152 4.25 5.75C4.25 5.41848 4.3817 5.10054 4.61612 4.86612C4.85054 4.6317 5.16848 4.5 5.5 4.5C5.83152 4.5 6.14946 4.6317 6.38388 4.86612C6.6183 5.10054 6.75 5.41848 6.75 5.75C6.75 6.08152 6.6183 6.39946 6.38388 6.63388C6.14946 6.8683 5.83152 7 5.5 7ZM11.75 5.75C11.75 6.08152 11.6183 6.39946 11.3839 6.63388C11.1495 6.8683 10.8315 7 10.5 7C10.1685 7 9.85054 6.8683 9.61612 6.63388C9.3817 6.39946 9.25 6.08152 9.25 5.75C9.25 5.41848 9.3817 5.10054 9.61612 4.86612C9.85054 4.6317 10.1685 4.5 10.5 4.5C10.8315 4.5 11.1495 4.6317 11.3839 4.86612C11.6183 5.10054 11.75 5.41848 11.75 5.75ZM0 14.125C0 13.5614 0.223883 13.0209 0.622398 12.6224C1.02091 12.2239 1.56141 12 2.125 12H13.875C14.4386 12 14.9791 12.2239 15.3776 12.6224C15.7761 13.0209 16 13.5614 16 14.125V14.65C16 16.227 15.2325 17.594 13.832 18.5425C12.45 19.4785 10.47 20 8 20C5.53 20 3.55 19.4785 2.168 18.5425C0.7675 17.594 0 16.227 0 14.65V14.125Z" fill="white"/>
</svg>
