<svg width="110" height="19" viewBox="0 0 110 19" fill="none" xmlns="http://www.w3.org/2000/svg">
<path d="M14.25 8.65574V14.541C14.25 14.7005 14.2179 14.8583 14.1555 15.0051C14.0932 15.1519 14.0019 15.2846 13.8872 15.3954C13.7725 15.5061 13.6366 15.5926 13.4877 15.6497C13.3388 15.7068 13.1799 15.7333 13.0205 15.7277L12.9152 15.719L7.125 14.9954V8.65574H14.25ZM5.54167 8.65574V14.7975L1.387 14.2782C1.004 14.2303 0.651665 14.0442 0.396247 13.7548C0.140829 13.4654 -8.40215e-05 13.0927 3.75862e-08 12.7067V8.65574H5.54167ZM12.9152 0.00915962C13.0735 -0.0106082 13.2341 0.001696 13.3875 0.0453383C13.5408 0.0889806 13.6838 0.163067 13.808 0.263178C13.9321 0.363289 14.0348 0.487374 14.1099 0.628031C14.185 0.768688 14.2311 0.923036 14.2452 1.08187L14.25 1.18716V7.07241H7.125V0.732743L12.9152 0.00915962ZM5.54167 0.93066V7.07241H3.75862e-08V3.02145C-8.40215e-05 2.63547 0.140829 2.26275 0.396247 1.97336C0.651665 1.68397 1.004 1.49785 1.387 1.44999L5.54167 0.93066Z" fill="white"/>
<path fill-rule="evenodd" clip-rule="evenodd" d="M33.4589 12.1033C33.5936 12.111 33.7241 12.153 33.838 12.2253C33.9519 12.2977 34.0454 12.3979 34.1096 12.5165L35.6075 15.2818C35.7339 15.5157 35.7928 15.7801 35.7775 16.0455C35.7622 16.3109 35.6733 16.5668 35.5208 16.7846C35.3683 17.0024 35.1581 17.1734 34.914 17.2785C34.6698 17.3836 34.4011 17.4186 34.1381 17.3797L31.0269 16.919C30.8934 16.8992 30.7672 16.8455 30.6603 16.7632C30.5533 16.6809 30.4692 16.5726 30.4159 16.4486C30.3626 16.3246 30.3419 16.1891 30.3557 16.0549C30.3695 15.9206 30.4174 15.7921 30.4949 15.6816L30.9881 14.977L30.8503 14.198C30.8322 14.0956 30.8345 13.9907 30.8569 13.8891C30.8794 13.7876 30.9216 13.6914 30.9813 13.6062C31.0409 13.521 31.1167 13.4484 31.2044 13.3925C31.2921 13.3366 31.39 13.2986 31.4924 13.2805L32.2722 13.1435L32.7654 12.4389C32.8427 12.3284 32.9471 12.2395 33.0684 12.1806C33.1898 12.1217 33.3242 12.0948 33.4589 12.1025V12.1033ZM38.4836 12.0843C38.5872 12.0285 38.7019 11.9965 38.8194 11.9906C38.9369 11.9847 39.0542 12.0051 39.1628 12.0502L39.2547 12.0954L39.9988 12.5252L40.7636 12.3202C40.9509 12.27 41.1502 12.2903 41.3236 12.3773C41.4969 12.4642 41.6324 12.6118 41.7041 12.792L41.7334 12.8799L41.9384 13.6447L42.6826 14.0745C42.792 14.1377 42.8848 14.2261 42.9531 14.3324C43.0214 14.4386 43.0632 14.5597 43.0752 14.6855C43.0871 14.8113 43.0687 14.9381 43.0217 15.0553C42.9746 15.1726 42.9001 15.2768 42.8045 15.3594L42.723 15.4212L40.0986 17.1533C39.8855 17.294 39.6387 17.3751 39.3837 17.3884C39.1287 17.4016 38.8748 17.3464 38.6483 17.2285C38.4219 17.1106 38.231 16.9343 38.0956 16.7179C37.9601 16.5014 37.885 16.2527 37.878 15.9975L37.8803 15.8724L38.0688 12.7334C38.0769 12.5989 38.1193 12.4686 38.1919 12.355C38.2645 12.2414 38.3649 12.1482 38.4836 12.0843ZM36.4166 1.58203C37.2564 1.58203 38.0619 1.91566 38.6557 2.50953C39.2496 3.10339 39.5832 3.90885 39.5832 4.7487V5.54036C39.5832 6.50145 39.9806 7.33507 40.5063 8.19561L41.089 9.11791C41.1681 9.24457 41.2433 9.36728 41.3106 9.4797C41.564 9.90799 41.8078 10.3822 41.9345 10.8897C42.0207 11.2421 42.0722 11.6022 42.0881 11.9647C41.8914 11.7684 41.6465 11.6273 41.378 11.5556C41.1095 11.4839 40.8269 11.4841 40.5586 11.5562L40.1113 11.6758L39.6505 11.4098C39.4167 11.2749 39.1524 11.202 38.8825 11.198C38.6127 11.1941 38.3463 11.2591 38.1086 11.3871C37.871 11.515 37.67 11.7016 37.5247 11.929C37.3795 12.1565 37.2948 12.4173 37.2787 12.6867L37.0903 15.8257C37.0736 16.0988 37.1077 16.3672 37.1861 16.6197L36.9731 16.6237H36.6517C36.5915 16.6237 36.5319 16.6226 36.4728 16.6205C36.6469 16.0584 36.5931 15.4394 36.3033 14.905L34.8063 12.1397C34.6778 11.9024 34.4908 11.7018 34.263 11.5571C34.0352 11.4124 33.7741 11.3283 33.5047 11.3128C33.2353 11.2974 32.9663 11.351 32.7235 11.4687C32.4806 11.5864 32.2718 11.7643 32.117 11.9853L31.8122 12.4207L31.551 12.4667C31.5243 12.1608 31.5307 11.8529 31.57 11.5483C31.5993 11.3227 31.6381 11.0994 31.6903 10.8897C31.8471 10.2627 32.1138 9.73461 32.3688 9.29049L32.7147 8.70466C33.0441 8.13703 33.2499 7.69528 33.2499 7.1237V4.7487C33.2499 3.90885 33.5835 3.10339 34.1774 2.50953C34.7713 1.91566 35.5767 1.58203 36.4166 1.58203ZM35.2781 6.15628L34.6274 6.48086C34.8047 6.95349 35.0802 7.39603 35.3375 7.74753L35.499 7.96049L35.6447 8.13861L35.7088 8.21303L35.9067 8.10141L36.1672 7.94545C36.3065 7.85916 36.4585 7.76178 36.6153 7.65491C37.0934 7.32874 37.5851 6.93449 37.931 6.5252L36.0975 6.06603C35.8224 5.99731 35.5317 6.02932 35.2781 6.15628Z" fill="white"/>
<path d="M72.0786 16.055C71.3027 16.8071 70.4557 16.6883 69.6402 16.3321C68.7773 15.9679 67.9857 15.9521 67.0752 16.3321C65.9352 16.8229 65.3336 16.6804 64.6527 16.055C60.7894 12.0729 61.3594 6.00875 65.7452 5.78708C66.814 5.8425 67.5582 6.37292 68.1836 6.42042C69.1177 6.23042 70.0123 5.68417 71.0098 5.75542C72.2052 5.85042 73.1077 6.32542 73.7015 7.18042C71.2315 8.66083 71.8173 11.9146 74.0815 12.825C73.6302 14.0125 73.0444 15.1921 72.0707 16.0629L72.0786 16.055ZM68.1044 5.73958C67.9857 3.97417 69.4186 2.5175 71.0652 2.375C71.2948 4.4175 69.2127 5.9375 68.1044 5.73958Z" fill="white"/>
<path fill-rule="evenodd" clip-rule="evenodd" d="M106.081 11.0813V15.0397C106.081 15.6696 105.831 16.2737 105.385 16.7191C104.94 17.1645 104.336 17.4147 103.706 17.4147H95.7891C95.1592 17.4147 94.5551 17.1645 94.1097 16.7191C93.6643 16.2737 93.4141 15.6696 93.4141 15.0397V11.0813H106.081ZM99.7474 2.37301C100.8 2.37301 101.793 2.62951 102.666 3.08472L103.146 2.60497C103.219 2.52936 103.306 2.46904 103.403 2.42755C103.5 2.38606 103.603 2.36422 103.709 2.36331C103.814 2.3624 103.918 2.38243 104.015 2.42223C104.113 2.46204 104.201 2.52082 104.275 2.59516C104.35 2.66949 104.408 2.75788 104.448 2.85517C104.488 2.95246 104.508 3.05671 104.507 3.16183C104.506 3.26694 104.484 3.37083 104.443 3.46741C104.401 3.564 104.341 3.65136 104.265 3.72438L103.988 4.00147C104.648 4.59481 105.175 5.32042 105.536 6.13106C105.896 6.94169 106.082 7.81916 106.081 8.70634V9.49801H93.4141V8.70634C93.4131 7.81924 93.599 6.94188 93.9597 6.13139C94.3203 5.32089 94.8476 4.59544 95.5072 4.00226L95.2294 3.72518C95.0808 3.57673 94.9973 3.37536 94.9972 3.16535C94.9972 2.95535 95.0805 2.75391 95.229 2.60536C95.3774 2.45681 95.5788 2.37332 95.7888 2.37324C95.9988 2.37317 96.2002 2.45652 96.3488 2.60497L96.8285 3.08472C97.7303 2.6168 98.7314 2.3727 99.7474 2.37301ZM97.3724 5.53968C97.1624 5.53968 96.9611 5.62308 96.8126 5.77155C96.6641 5.92002 96.5807 6.12138 96.5807 6.33134C96.5807 6.54131 96.6641 6.74267 96.8126 6.89114C96.9611 7.0396 97.1624 7.12301 97.3724 7.12301C97.5824 7.12301 97.7837 7.0396 97.9322 6.89114C98.0807 6.74267 98.1641 6.54131 98.1641 6.33134C98.1641 6.12138 98.0807 5.92002 97.9322 5.77155C97.7837 5.62308 97.5824 5.53968 97.3724 5.53968ZM102.122 5.53968C101.912 5.53968 101.711 5.62308 101.563 5.77155C101.414 5.92002 101.331 6.12138 101.331 6.33134C101.331 6.54131 101.414 6.74267 101.563 6.89114C101.711 7.0396 101.912 7.12301 102.122 7.12301C102.332 7.12301 102.534 7.0396 102.682 6.89114C102.831 6.74267 102.914 6.54131 102.914 6.33134C102.914 6.12138 102.831 5.92002 102.682 5.77155C102.534 5.62308 102.332 5.53968 102.122 5.53968Z" fill="white"/>
</svg>
