<svg width="64" height="64" viewBox="0 0 64 64" fill="none" xmlns="http://www.w3.org/2000/svg">
<rect width="64" height="64" rx="21.3333" fill="white" fill-opacity="0.04"/>
<path d="M20.1031 25.2C20.1031 21.9116 22.7647 19.25 26.0531 19.25C29.3416 19.25 32.0031 21.9116 32.0031 25.2C32.0031 28.4884 29.3416 31.15 26.0531 31.15C22.7647 31.15 20.1031 28.4884 20.1031 25.2ZM16.7031 43.05C16.7031 37.8863 20.8894 33.7 26.0531 33.7C31.2169 33.7 35.4031 37.8863 35.4031 43.05V43.3688C35.4031 44.6013 34.4044 45.6 33.1719 45.6H18.9344C17.7019 45.6 16.7031 44.6013 16.7031 43.3688V43.05ZM39.6531 21.8C42.4688 21.8 44.7531 24.0844 44.7531 26.9C44.7531 29.7156 42.4688 32 39.6531 32C36.8375 32 34.5531 29.7156 34.5531 26.9C34.5531 24.0844 36.8375 21.8 39.6531 21.8ZM39.6531 34.55C43.8766 34.55 47.3031 37.9766 47.3031 42.2V43.39C47.3031 44.6119 46.315 45.6 45.0931 45.6H37.4006C37.7513 44.9359 37.9531 44.1763 37.9531 43.3688V43.05C37.9531 40.3141 37.0288 37.7959 35.4828 35.7878C36.6834 35.0069 38.1178 34.55 39.6531 34.55Z" fill="white"/>
</svg>
