<svg width="64" height="64" viewBox="0 0 64 64" fill="none" xmlns="http://www.w3.org/2000/svg">
<rect width="64" height="64" rx="21.3333" fill="white" fill-opacity="0.04"/>
<path d="M27.75 20.6667L19.25 26.3334V43.3334L27.75 37.6667L36.25 43.3334L44.75 37.6667V20.6667L36.25 26.3334L27.75 20.6667Z" fill="white"/>
<path fill-rule="evenodd" clip-rule="evenodd" d="M45.4213 19.4172C45.6474 19.5383 45.8364 19.7184 45.9681 19.9385C46.0998 20.1585 46.1694 20.4102 46.1693 20.6667V37.6667C46.1693 37.8999 46.1118 38.1295 46.0018 38.3351C45.8918 38.5407 45.7328 38.716 45.5389 38.8454L37.0389 44.512C36.8061 44.6674 36.5325 44.7503 36.2526 44.7503C35.9727 44.7503 35.6992 44.6674 35.4664 44.512L27.7526 39.3695L20.0389 44.512C19.8255 44.6544 19.5775 44.7361 19.3213 44.7486C19.0652 44.761 18.8104 44.7037 18.5843 44.5827C18.3581 44.4617 18.1691 44.2816 18.0373 44.0616C17.9055 43.8415 17.8359 43.5899 17.8359 43.3334V26.3334C17.8359 26.1002 17.8934 25.8706 18.0034 25.665C18.1134 25.4594 18.2724 25.2841 18.4664 25.1547L26.9664 19.488C27.1992 19.3327 27.4727 19.2498 27.7526 19.2498C28.0325 19.2498 28.3061 19.3327 28.5389 19.488L36.2526 24.6305L43.9664 19.488C44.1797 19.3456 44.4278 19.2638 44.684 19.2513C44.9403 19.2388 45.1951 19.2962 45.4213 19.4172ZM20.6693 27.0913V40.6856L26.9664 36.488C27.1992 36.3327 27.4727 36.2498 27.7526 36.2498C28.0325 36.2498 28.3061 36.3327 28.5389 36.488L36.2526 41.6305L43.3359 36.9088V23.3145L37.0389 27.512C36.8061 27.6674 36.5325 27.7503 36.2526 27.7503C35.9727 27.7503 35.6992 27.6674 35.4664 27.512L27.7526 22.3695L20.6693 27.0913Z" fill="white"/>
</svg>
