<svg width="64" height="64" viewBox="0 0 64 64" fill="none" xmlns="http://www.w3.org/2000/svg">
<rect width="64" height="64" rx="21.3333" fill="white" fill-opacity="0.04"/>
<path d="M32 16.4166L19.25 22.0833V30.5833C19.25 38.4458 24.69 45.7983 32 47.5833C39.31 45.7983 44.75 38.4458 44.75 30.5833V22.0833L32 16.4166ZM32 24.9166C33.9833 24.9166 35.9667 26.475 35.9667 28.4583V30.5833C36.8167 30.5833 37.6667 31.4333 37.6667 32.425V37.3833C37.6667 38.2333 36.8167 39.0833 35.825 39.0833H28.0333C27.1833 39.0833 26.3333 38.2333 26.3333 37.2416V32.2833C26.3333 31.4333 27.1833 30.5833 28.0333 30.5833V28.4583C28.0333 26.475 30.0167 24.9166 32 24.9166ZM32 26.6166C30.8667 26.6166 29.875 27.325 29.875 28.4583V30.5833H34.125V28.4583C34.125 27.325 33.1333 26.6166 32 26.6166Z" fill="white"/>
</svg>
