<svg width="64" height="64" viewBox="0 0 64 64" fill="none" xmlns="http://www.w3.org/2000/svg">
<rect width="64" height="64" rx="21.3333" fill="white" fill-opacity="0.04"/>
<path d="M24.1288 21.2065C26.1079 21.0209 28.6536 21.0209 31.9445 21.0209H32.0607C35.3502 21.0209 37.8959 21.0209 39.875 21.2065C41.8683 21.3949 43.4408 21.7816 44.7044 22.6656C46.0191 23.5865 46.6552 24.8062 46.9527 26.3589C47.2318 27.8095 47.2318 29.647 47.2318 31.8938V32.1063C47.2318 34.3531 47.2318 36.1905 46.9527 37.6412C46.6552 39.1939 46.0191 40.4136 44.7044 41.3345C43.4408 42.2185 41.8683 42.6052 39.8736 42.7936C37.8959 42.9792 35.3502 42.9792 32.0607 42.9792H31.9445C28.655 42.9792 26.1093 42.9792 24.1302 42.7936C22.1369 42.6052 20.5644 42.2185 19.3008 41.3345C17.9861 40.4136 17.35 39.1939 17.0525 37.6412C16.7734 36.1905 16.7734 34.3531 16.7734 32.1063V31.8938C16.7734 29.647 16.7734 27.8095 17.0525 26.3589C17.35 24.8062 17.9861 23.5865 19.3008 22.6656C20.5644 21.7816 22.1369 21.3949 24.1316 21.2065M31.3779 27.6721C31.0161 27.4317 30.5742 27.3434 30.1479 27.4264C29.7215 27.5094 29.345 27.757 29.0999 28.1155C28.9157 28.3861 28.8165 28.7077 28.8165 29.0364V34.9637C28.8164 35.2607 28.8967 35.5522 29.0491 35.8072C29.2014 36.0622 29.4199 36.2711 29.6815 36.4118C29.9431 36.5525 30.2379 36.6196 30.5346 36.6061C30.8313 36.5926 31.1188 36.4989 31.3665 36.335L35.8644 33.3969C36.0919 33.2489 36.2789 33.0467 36.4088 32.8085C36.5386 32.5702 36.6072 32.3035 36.6083 32.0321C36.6095 31.7608 36.5431 31.4935 36.4152 31.2542C36.2873 31.0149 36.102 30.8111 35.8758 30.6613L31.3779 27.6721Z" fill="white"/>
</svg>
