<svg width="54" height="54" viewBox="0 0 54 54" fill="none" xmlns="http://www.w3.org/2000/svg">
<rect width="54" height="54" rx="18" fill="white" fill-opacity="0.04"/>
<path d="M23 17.6667H36.3333C37.0406 17.6667 37.7189 17.9476 38.219 18.4477C38.719 18.9478 39 19.6261 39 20.3334V33.6667M36.3333 36.3334H17.6667C16.9594 36.3334 16.2811 36.0524 15.781 35.5523C15.281 35.0522 15 34.3739 15 33.6667V20.3334C15 19.6261 15.281 18.9478 15.781 18.4477C16.2811 17.9476 16.9594 17.6667 17.6667 17.6667" stroke="white" stroke-width="2.66667" stroke-linecap="round" stroke-linejoin="round"/>
<path d="M20.3333 31V25.6667C20.3333 24.9594 20.6143 24.2811 21.1144 23.781C21.6145 23.281 22.2928 23 23 23M25.6667 25.6667V31M20.3333 28.3333H25.6667M33.6667 23V28.3333M32.4867 27.1747C32.9267 27.3733 33.28 27.724 33.4827 28.1613M15 15L39 39" stroke="white" stroke-width="2.66667" stroke-linecap="round" stroke-linejoin="round"/>
</svg>
