<svg width="54" height="54" viewBox="0 0 54 54" fill="none" xmlns="http://www.w3.org/2000/svg">
<rect width="54" height="54" rx="18" fill="white" fill-opacity="0.04"/>
<g clip-path="url(#clip0_2427_13428)">
<path d="M38.7816 16.1314C38.645 16.5163 38.4317 16.8694 38.1546 17.1694C37.8776 17.4695 37.5425 17.7101 37.1696 17.8768C36.7968 18.0434 36.394 18.1327 35.9857 18.1391C35.5773 18.1455 35.1719 18.069 34.7941 17.9141C34.4162 17.7593 34.0737 17.5293 33.7873 17.2381C33.5009 16.947 33.2766 16.6007 33.128 16.2203C32.9794 15.84 32.9095 15.4334 32.9227 15.0252C32.9358 14.617 33.0317 14.2158 33.2045 13.8457L31.3531 12.9772C30.8587 12.7711 30.303 12.7684 29.8066 12.9695C29.3102 13.1706 28.9132 13.5594 28.7016 14.0514L21.0216 32.1314L20.0159 34.4172C19.8099 34.9115 19.8071 35.4672 20.0083 35.9636C20.2094 36.46 20.5981 36.857 21.0902 37.0686L30.3702 41.0229C30.8646 41.2289 31.4203 41.2316 31.9166 41.0305C32.413 40.8294 32.8101 40.4406 33.0216 39.9486L41.7073 19.5143C41.8988 19.0391 41.904 18.5092 41.7218 18.0304C41.5396 17.5515 41.1834 17.1591 40.7245 16.9314L38.7816 16.1314Z" stroke="white" stroke-width="2" stroke-linecap="round" stroke-linejoin="round"/>
<path d="M21.6431 16.1543L20.7517 16.36C20.8324 16.7113 20.8425 17.0752 20.7813 17.4305C20.7202 17.7858 20.589 18.1253 20.3955 18.4295C20.202 18.7336 19.9499 18.9962 19.654 19.2021C19.358 19.4079 19.0241 19.5529 18.6717 19.6286C17.9569 19.7789 17.2118 19.6429 16.5963 19.2497C15.9808 18.8564 15.5442 18.2374 15.3802 17.5257L13.5974 17.8914C13.3529 17.9448 13.1217 18.0471 12.9179 18.1923C12.7141 18.3375 12.5418 18.5225 12.4115 18.7362C12.2812 18.9498 12.1955 19.1876 12.1597 19.4353C12.1239 19.683 12.1386 19.9353 12.2031 20.1772C12.2031 20.1772 13.0259 23.9943 13.9859 28.2914" stroke="white" stroke-width="2" stroke-linecap="round" stroke-linejoin="round"/>
</g>
<defs>
<clipPath id="clip0_2427_13428">
<rect width="32" height="32" fill="white" transform="translate(11 11)"/>
</clipPath>
</defs>
</svg>
