<svg width="54" height="54" viewBox="0 0 54 54" fill="none" xmlns="http://www.w3.org/2000/svg">
<rect width="54" height="54" rx="18" fill="white" fill-opacity="0.04"/>
<path d="M26.9974 32.4506C27.8418 32.4391 28.4641 32.1333 28.8641 31.5333L36.3307 20.3333L25.1307 27.8C24.5307 28.2 24.2143 28.8111 24.1814 29.6333C24.1485 30.4555 24.3983 31.1333 24.9307 31.6666C25.4632 32.2 26.1521 32.4613 26.9974 32.4506ZM26.9974 16.3333C28.3085 16.3333 29.5698 16.5169 30.7814 16.884C31.993 17.2511 33.1316 17.8009 34.1974 18.5333L31.6641 20.1333C30.9307 19.7555 30.1698 19.4724 29.3814 19.284C28.593 19.0955 27.7983 19.0009 26.9974 19C24.0418 19 21.525 20.0391 19.4467 22.1173C17.3685 24.1955 16.3298 26.712 16.3307 29.6666C16.3307 30.6 16.4587 31.5222 16.7147 32.4333C16.9707 33.3444 17.3316 34.2 17.7974 35H36.1974C36.7085 34.1555 37.081 33.2778 37.3147 32.3666C37.5485 31.4555 37.665 30.5111 37.6641 29.5333C37.6641 28.7333 37.5694 27.9555 37.3801 27.2C37.1907 26.4444 36.9076 25.7111 36.5307 25L38.1307 22.4666C38.7974 23.5111 39.3254 24.6222 39.7147 25.8C40.1041 26.9778 40.3094 28.2 40.3307 29.4666C40.3521 30.7333 40.2076 31.9444 39.8974 33.1C39.5872 34.2555 39.1316 35.3555 38.5307 36.4C38.2863 36.8 37.953 37.1111 37.5307 37.3333C37.1085 37.5555 36.6641 37.6666 36.1974 37.6666H17.7974C17.3307 37.6666 16.8863 37.5555 16.4641 37.3333C16.0418 37.1111 15.7085 36.8 15.4641 36.4C14.8863 35.4 14.4418 34.3391 14.1307 33.2173C13.8196 32.0955 13.6641 30.912 13.6641 29.6666C13.6641 27.8222 14.0143 26.0946 14.7147 24.484C15.4152 22.8733 16.3707 21.4622 17.5814 20.2506C18.7921 19.0391 20.2085 18.0835 21.8307 17.384C23.453 16.6844 25.1752 16.3342 26.9974 16.3333Z" fill="white"/>
</svg>
